<?xml version="1.0"?>
<svg viewBox="0 0 1000 708" xmlns="http://www.w3.org/2000/svg" style="width:100%;height:auto;display:block">
  <defs>
    <radialGradient id="ocean" cx="50%" cy="38%" r="80%">
      <stop offset="0%" stop-color="#0c2444"/><stop offset="55%" stop-color="#08182f"/><stop offset="100%" stop-color="#040b1c"/>
    </radialGradient>
  </defs>
  <style>
    .grat { stroke: rgba(90,150,220,0.07); stroke-width:1; }
    .land { fill: rgba(24,78,120,0.5); stroke:#3fd0ff; stroke-width:1; stroke-linejoin:round; fill-rule:evenodd; filter:drop-shadow(0 0 3px rgba(60,200,255,0.35)); }
    .slot { fill:rgba(10,30,55,0.5); stroke:#2f7fbf; stroke-width:1.6; }
    .slotlbl { fill:#8fbfe8; font:600 12px 'Segoe UI',sans-serif; letter-spacing:1.5px; text-anchor:middle; dominant-baseline:middle; }
    .track { fill:rgba(8,24,46,0.75); stroke:#2f7fbf; stroke-width:1.5; }
    .track-danger { fill:rgba(120,25,25,0.55); stroke:#e06666; stroke-width:1.5; }
    .tracknum { fill:#cfe6ff; font:600 13px 'Segoe UI',sans-serif; text-anchor:middle; dominant-baseline:middle; }
    .tracklbl { fill:#7fb0dd; font:600 12px 'Segoe UI',sans-serif; letter-spacing:2px; }
    .title { fill:#6cf; font:700 34px 'Segoe UI',sans-serif; letter-spacing:4px; filter:drop-shadow(0 0 10px #4af); }
    .frame { fill:none; stroke:#2a6da8; stroke-width:2; }
  </style>
  <rect width="1000" height="708" fill="url(#ocean)"/>
  <line x1="-96.8" y1="0" x2="-96.8" y2="708" class="grat"/>
<line x1="-35.2" y1="0" x2="-35.2" y2="708" class="grat"/>
<line x1="26.5" y1="0" x2="26.5" y2="708" class="grat"/>
<line x1="88.2" y1="0" x2="88.2" y2="708" class="grat"/>
<line x1="149.9" y1="0" x2="149.9" y2="708" class="grat"/>
<line x1="211.5" y1="0" x2="211.5" y2="708" class="grat"/>
<line x1="273.2" y1="0" x2="273.2" y2="708" class="grat"/>
<line x1="334.9" y1="0" x2="334.9" y2="708" class="grat"/>
<line x1="396.5" y1="0" x2="396.5" y2="708" class="grat"/>
<line x1="458.2" y1="0" x2="458.2" y2="708" class="grat"/>
<line x1="519.9" y1="0" x2="519.9" y2="708" class="grat"/>
<line x1="581.6" y1="0" x2="581.6" y2="708" class="grat"/>
<line x1="643.2" y1="0" x2="643.2" y2="708" class="grat"/>
<line x1="704.9" y1="0" x2="704.9" y2="708" class="grat"/>
<line x1="766.6" y1="0" x2="766.6" y2="708" class="grat"/>
<line x1="828.2" y1="0" x2="828.2" y2="708" class="grat"/>
<line x1="889.9" y1="0" x2="889.9" y2="708" class="grat"/>
<line x1="951.6" y1="0" x2="951.6" y2="708" class="grat"/>
<line x1="1013.3" y1="0" x2="1013.3" y2="708" class="grat"/>
<line x1="0" y1="640.5" x2="1000" y2="640.5" class="grat"/>
<line x1="0" y1="559.7" x2="1000" y2="559.7" class="grat"/>
<line x1="0" y1="478.9" x2="1000" y2="478.9" class="grat"/>
<line x1="0" y1="398.0" x2="1000" y2="398.0" class="grat"/>
<line x1="0" y1="317.2" x2="1000" y2="317.2" class="grat"/>
<line x1="0" y1="236.4" x2="1000" y2="236.4" class="grat"/>
<line x1="0" y1="155.6" x2="1000" y2="155.6" class="grat"/>
<line x1="0" y1="74.8" x2="1000" y2="74.8" class="grat"/>
  <path d="M249.3,615.7 L253.3,618.1 L257.6,619.1 L256.2,621.1 L253.3,621.3 L251.7,619.9 L250.7,621.5 L248.1,622.8 L244.7,622.3 L242.5,621.1 L239.3,620.5 L235.4,618.3 L232.2,616.1 L228.0,611.6 L230.5,612.4 L234.9,615.1 L239.0,616.6 L240.5,614.7 L241.5,611.9 L244.4,610.3 L246.6,610.8 L246.6,610.8 L247.8,612.6 L249.3,615.7Z" class="land"/>
<path d="M277.7,604.5 L280.1,606.4 L279.2,607.8 L275.1,609.0 L273.7,607.6 L271.0,609.4 L269.5,607.6 L273.2,605.2 L275.8,606.2 L277.7,604.5Z" class="land"/>
<path d="M674.9,598.9 L670.2,599.2 L670.1,597.0 L670.6,595.4 L670.8,594.5 L672.8,595.8 L675.7,596.3 L675.8,597.1 L674.9,598.9Z" class="land"/>
<path d="M906.6,562.9 L909.5,564.3 L911.2,563.7 L913.6,563.0 L915.5,563.2 L915.7,568.0 L914.6,569.4 L914.3,572.7 L913.2,571.6 L911.1,574.4 L910.5,574.2 L908.6,574.0 L906.7,570.6 L906.2,567.9 L904.5,564.4 L904.5,562.5 L906.6,562.9Z" class="land"/>
<path d="M991.7,563.4 L992.4,565.1 L994.6,563.4 L995.5,565.1 L995.5,566.8 L994.4,568.7 L992.4,571.7 L990.8,573.3 L991.9,575.3 L989.5,575.3 L986.9,576.8 L986.1,579.5 L984.3,583.6 L981.9,585.4 L980.4,586.5 L977.5,586.4 L975.5,585.1 L972.2,584.8 L971.7,583.3 L973.3,580.3 L977.2,576.4 L979.2,575.6 L981.4,574.1 L984.0,571.9 L985.9,569.8 L987.3,566.8 L988.4,565.8 L988.9,563.6 L991.1,561.7 L991.7,563.4Z" class="land"/>
<path d="M996.6,544.2 L998.9,548.4 L998.9,545.7 L1000.3,546.8 L1000.8,549.8 L1003.3,551.1 L1005.4,551.5 L1007.1,549.9 L1008.7,550.4 L1007.9,554.0 L1007.0,556.3 L1004.6,556.2 L1003.8,557.5 L1004.1,559.2 L1003.7,560.0 L1002.5,562.1 L1001.0,564.9 L998.6,566.5 L998.1,565.5 L996.8,564.9 L998.5,561.5 L997.5,559.3 L994.2,557.7 L994.3,556.2 L996.5,554.8 L997.1,551.7 L996.9,549.1 L995.7,546.4 L995.7,545.7 L994.3,544.0 L991.8,540.4 L990.6,537.6 L991.7,537.3 L993.4,539.5 L995.8,540.6 L996.6,544.2Z" class="land"/>
<path d="M973.5,487.6 L972.4,488.6 L970.7,487.5 L968.5,485.7 L966.5,483.5 L964.4,480.7 L964.0,479.3 L965.3,479.4 L967.1,480.7 L968.4,482.1 L969.4,483.2 L971.9,485.7 L973.5,487.6Z" class="land"/>
<path d="M1008.2,468.1 L1009.3,469.3 L1008.8,471.4 L1006.9,472.0 L1005.2,471.5 L1004.9,469.7 L1006.1,468.3 L1007.5,468.8 L1008.2,468.1Z" class="land"/>
<path d="M1011.3,465.9 L1009.3,466.8 L1008.9,465.3 L1010.5,464.5 L1011.5,464.2 L1013.3,463.0 L1013.3,464.9 L1011.3,465.9Z" class="land"/>
<path d="M-96.6,464.7 L-96.8,464.9 L-96.8,463.0 L-96.2,462.8 L-96.6,464.7Z" class="land"/>
<path d="M975.8,464.6 L974.8,465.1 L973.7,463.4 L973.8,462.3 L975.8,464.6Z" class="land"/>
<path d="M973.5,458.4 L974.0,461.7 L973.2,461.1 L972.5,461.4 L972.1,460.3 L972.0,457.2 L973.5,458.4Z" class="land"/>
<path d="M612.6,452.8 L613.1,457.7 L613.9,459.6 L613.6,461.5 L613.0,462.7 L612.0,460.3 L611.4,461.5 L612.0,464.5 L611.7,466.2 L610.8,467.2 L610.7,470.6 L609.4,475.3 L607.9,480.9 L606.0,488.5 L604.8,494.2 L603.4,498.8 L600.9,499.8 L598.2,501.5 L596.5,500.5 L594.0,499.0 L593.2,496.9 L593.0,493.3 L591.9,490.1 L591.6,487.2 L592.1,484.3 L593.6,483.6 L593.6,482.2 L595.0,479.2 L595.3,476.6 L594.6,474.7 L594.0,472.1 L593.8,468.4 L594.9,466.1 L595.3,463.6 L596.8,463.4 L598.5,462.6 L599.7,461.9 L601.0,461.8 L602.8,459.5 L605.3,457.0 L606.2,455.0 L605.8,453.3 L607.1,453.8 L608.8,450.9 L608.9,448.5 L609.9,446.7 L611.0,448.4 L611.8,450.2 L612.6,452.8Z" class="land"/>
<path d="M900.9,453.7 L902.0,456.8 L904.0,455.3 L905.0,457.0 L906.5,458.6 L906.2,460.4 L906.8,463.9 L907.3,465.9 L908.1,466.4 L908.9,469.8 L908.6,471.9 L909.6,474.7 L913.0,476.8 L915.1,478.7 L917.2,480.5 L916.8,481.4 L918.6,484.0 L919.8,488.3 L921.0,487.4 L922.2,489.2 L923.0,488.6 L923.5,492.9 L925.7,495.3 L927.1,496.9 L929.6,500.2 L930.4,503.4 L930.5,505.7 L930.3,508.2 L931.8,511.6 L931.6,515.2 L931.0,517.1 L930.2,520.7 L930.3,523.0 L929.7,525.9 L928.3,529.6 L926.0,531.6 L924.9,534.7 L923.9,536.7 L923.0,540.2 L921.8,542.2 L921.0,545.2 L920.6,548.0 L920.7,549.3 L919.0,550.7 L915.5,550.8 L912.7,552.5 L911.3,554.1 L909.4,555.8 L906.8,554.0 L905.0,553.3 L905.4,551.2 L903.7,552.0 L901.0,554.9 L898.4,553.8 L896.6,553.1 L894.9,552.9 L891.9,551.7 L889.9,549.2 L889.3,546.1 L888.6,544.1 L887.1,542.4 L884.1,542.0 L885.1,540.0 L884.4,537.0 L882.9,539.8 L880.1,540.5 L881.8,538.3 L882.2,536.0 L883.4,534.0 L883.2,531.0 L880.7,534.4 L878.7,535.8 L877.5,539.0 L875.1,537.4 L875.2,535.2 L873.3,532.3 L871.7,530.8 L872.3,529.9 L868.3,527.4 L866.1,527.3 L863.2,525.3 L857.6,525.7 L853.7,527.2 L850.1,528.5 L847.2,528.2 L843.9,530.3 L841.3,531.2 L840.7,533.4 L839.5,535.0 L836.9,535.1 L835.0,535.5 L832.3,534.7 L830.0,535.2 L827.9,535.3 L826.1,537.5 L825.2,537.3 L823.6,538.5 L822.2,539.7 L819.9,539.6 L817.8,539.6 L814.6,537.0 L812.9,536.2 L813.0,533.9 L814.5,533.4 L815.0,532.5 L814.9,531.0 L815.3,528.2 L815.0,525.8 L813.3,521.7 L812.8,519.4 L813.0,517.1 L811.7,514.5 L811.6,513.3 L810.3,511.7 L809.9,508.5 L808.1,505.3 L807.7,503.6 L809.1,505.3 L808.0,501.6 L809.5,502.8 L810.5,504.3 L810.4,502.3 L808.9,499.1 L808.6,497.8 L807.9,496.6 L808.2,494.3 L808.8,493.3 L809.3,491.2 L808.9,488.9 L810.2,486.0 L810.4,489.0 L811.7,486.3 L814.2,484.9 L815.7,483.2 L818.1,481.7 L819.5,481.4 L820.4,481.9 L822.8,480.4 L824.7,479.9 L825.1,479.0 L825.9,478.7 L827.6,478.8 L830.9,477.6 L832.6,475.8 L833.3,473.6 L835.2,471.6 L835.3,470.0 L835.4,467.8 L837.5,464.3 L838.8,467.8 L840.1,467.0 L839.0,465.1 L840.0,463.2 L841.4,464.0 L841.8,461.0 L843.4,459.0 L844.2,457.4 L845.7,456.7 L845.8,455.6 L847.1,456.0 L847.2,455.0 L848.5,454.4 L850.0,453.9 L852.3,455.7 L854.0,458.1 L856.0,458.2 L857.9,458.5 L857.3,456.3 L858.7,453.1 L860.1,452.0 L859.6,451.0 L861.0,448.7 L862.9,447.3 L864.4,447.8 L867.0,447.0 L867.0,444.9 L864.7,443.6 L866.3,443.0 L868.4,444.0 L870.0,445.7 L872.6,446.7 L873.5,446.3 L875.4,447.5 L877.2,446.4 L878.4,446.7 L879.1,446.0 L880.5,448.0 L879.7,450.1 L878.5,451.8 L877.5,451.9 L877.8,453.5 L876.9,455.5 L875.8,457.5 L876.0,458.7 L878.5,460.9 L880.9,462.2 L882.5,463.6 L884.7,466.0 L885.6,466.0 L887.2,467.0 L887.6,468.2 L890.6,469.6 L892.6,468.2 L893.2,466.1 L893.8,464.3 L894.2,462.1 L895.2,458.8 L894.7,456.9 L895.0,455.7 L894.6,453.4 L895.0,450.4 L895.6,449.5 L895.1,448.2 L895.9,446.0 L896.4,443.8 L896.5,442.7 L897.7,441.2 L898.5,443.1 L898.8,445.7 L899.5,446.2 L899.7,447.9 L900.8,449.9 L901.0,452.2 L900.9,453.7Z" class="land"/>
<path d="M958.1,440.4 L959.0,441.8 L956.8,441.8 L955.7,439.3 L957.5,440.3 L958.1,440.4Z" class="land"/>
<path d="M830.5,439.4 L829.2,439.5 L825.1,436.7 L827.9,435.9 L829.6,437.1 L830.6,438.3 L830.5,439.4Z" class="land"/>
<path d="M954.2,437.9 L953.0,438.0 L951.1,437.6 L950.5,437.0 L950.7,435.4 L952.7,436.0 L953.7,436.9 L954.2,437.9Z" class="land"/>
<path d="M956.8,436.8 L956.3,437.6 L954.0,434.1 L953.4,431.7 L954.4,431.7 L955.5,434.9 L956.8,436.8Z" class="land"/>
<path d="M841.9,439.0 L839.3,439.9 L838.9,439.4 L839.2,438.1 L840.5,435.6 L843.6,434.0 L843.9,433.0 L846.6,432.1 L848.7,432.0 L849.7,431.5 L850.9,432.0 L849.7,433.1 L846.5,434.8 L843.9,436.0 L841.9,439.0Z" class="land"/>
<path d="M821.8,430.8 L822.9,431.8 L824.8,431.5 L825.6,433.2 L822.0,434.0 L819.9,434.6 L818.2,434.6 L819.3,432.2 L820.9,432.2 L821.8,430.8Z" class="land"/>
<path d="M837.2,430.8 L836.7,433.0 L832.1,434.1 L828.0,433.7 L828.0,432.2 L830.5,431.3 L832.4,432.5 L834.4,432.2 L837.2,430.8Z" class="land"/>
<path d="M951.2,431.7 L951.3,432.6 L948.9,430.8 L947.2,429.4 L946.1,428.0 L946.5,427.6 L947.9,428.6 L950.5,430.5 L951.2,431.7Z" class="land"/>
<path d="M944.0,427.7 L943.4,428.0 L942.0,427.1 L940.8,425.4 L940.9,424.7 L942.8,426.4 L944.0,427.7Z" class="land"/>
<path d="M793.2,425.4 L799.1,425.8 L799.8,424.2 L805.5,426.1 L806.6,428.7 L811.2,429.5 L815.0,431.9 L811.5,433.4 L808.1,431.8 L805.3,431.9 L802.1,431.6 L799.2,430.9 L795.6,429.3 L793.4,428.9 L792.1,429.4 L786.5,427.8 L785.9,426.0 L783.1,425.7 L785.2,421.9 L789.0,422.1 L791.5,423.7 L792.7,424.0 L793.2,425.4Z" class="land"/>
<path d="M873.6,423.2 L872.1,425.9 L871.8,422.9 L872.3,421.4 L873.0,420.1 L873.7,421.2 L873.6,423.2Z" class="land"/>
<path d="M938.9,425.6 L938.0,426.0 L936.7,424.5 L935.3,421.9 L934.7,418.8 L935.1,418.4 L935.4,419.6 L936.4,420.5 L937.9,423.1 L939.3,424.5 L938.9,425.6Z" class="land"/>
<path d="M926.9,420.2 L925.3,420.5 L924.8,421.7 L923.1,422.6 L921.5,423.6 L919.9,423.6 L917.3,422.4 L915.6,421.3 L915.8,420.0 L918.6,420.6 L920.3,420.3 L920.7,418.4 L921.2,418.3 L921.5,420.4 L923.2,420.1 L924.1,418.7 L925.8,417.3 L925.5,414.9 L927.3,414.8 L928.0,415.5 L927.9,417.7 L926.9,420.2Z" class="land"/>
<path d="M850.6,412.0 L849.4,413.4 L847.3,412.6 L846.7,410.9 L849.8,410.7 L850.6,412.0Z" class="land"/>
<path d="M860.5,410.6 L861.7,413.6 L859.1,412.0 L856.5,411.6 L854.7,411.9 L852.6,411.8 L853.3,409.5 L857.1,409.4 L860.5,410.6Z" class="land"/>
<path d="M930.4,416.2 L929.5,417.3 L928.9,414.9 L928.2,413.4 L926.8,412.0 L925.0,410.3 L922.8,409.1 L923.7,408.2 L925.3,409.3 L926.4,410.2 L927.7,411.1 L928.9,412.8 L930.1,414.1 L930.4,416.2Z" class="land"/>
<path d="M871.9,402.7 L872.7,409.2 L875.9,411.7 L878.5,407.4 L882.0,404.9 L884.8,404.9 L887.4,406.3 L889.7,407.8 L893.0,408.6 L898.4,411.3 L904.1,413.7 L906.2,415.7 L907.9,417.8 L908.4,420.1 L913.5,422.6 L914.2,424.8 L911.4,425.2 L912.1,427.9 L914.8,430.6 L916.8,434.8 L918.6,434.7 L918.5,436.5 L920.9,437.2 L919.9,437.9 L923.2,439.6 L922.9,440.8 L920.8,441.1 L920.1,440.0 L917.4,439.6 L914.3,439.0 L911.9,436.4 L910.2,434.2 L908.6,430.6 L904.5,428.9 L901.9,430.0 L900.1,431.4 L900.4,434.3 L898.0,435.7 L896.3,435.1 L893.1,434.9 L890.4,431.6 L887.2,430.8 L886.5,431.9 L882.6,432.0 L883.9,428.8 L885.8,427.6 L885.0,423.2 L883.5,419.8 L877.5,416.4 L875.0,416.1 L870.4,412.3 L869.5,414.3 L868.3,414.7 L867.6,413.2 L867.6,411.4 L865.2,409.4 L868.5,408.0 L870.7,408.1 L870.5,407.0 L866.0,407.0 L864.7,404.6 L862.0,403.8 L860.7,401.8 L864.8,400.9 L866.4,399.5 L871.4,401.2 L871.9,402.7Z" class="land"/>
<path d="M844.4,392.3 L841.9,396.3 L839.6,397.1 L836.6,396.3 L831.5,396.5 L828.8,397.1 L828.4,400.1 L831.1,403.7 L832.8,401.9 L838.5,400.5 L838.3,402.4 L836.9,401.8 L835.6,404.2 L832.9,405.7 L835.8,410.9 L835.3,412.3 L838.0,417.0 L838.0,419.6 L836.4,420.8 L835.1,419.4 L836.6,416.1 L833.6,417.7 L832.8,416.5 L833.2,415.0 L831.0,412.6 L831.2,408.7 L829.2,409.9 L829.4,414.6 L829.6,420.4 L827.6,421.0 L826.3,419.8 L827.2,416.1 L826.7,412.2 L825.4,412.1 L824.4,409.4 L825.7,406.7 L826.2,403.5 L827.7,397.4 L828.4,395.8 L831.0,392.8 L833.4,394.0 L837.3,394.5 L840.8,394.3 L843.9,391.4 L844.4,392.3Z" class="land"/>
<path d="M855.0,393.5 L854.9,397.0 L853.3,396.6 L852.8,399.1 L854.1,401.2 L853.2,401.7 L852.0,399.1 L851.1,394.0 L851.7,390.7 L852.7,389.3 L852.9,391.5 L854.7,391.8 L855.0,393.5Z" class="land"/>
<path d="M784.5,421.7 L781.1,421.8 L778.5,418.4 L774.5,415.1 L773.2,412.7 L770.9,409.4 L769.4,406.3 L767.0,400.7 L764.3,397.3 L763.4,393.8 L762.3,390.7 L759.5,388.1 L757.9,384.7 L755.5,382.4 L752.3,378.0 L752.1,375.9 L754.0,376.1 L758.8,376.8 L761.5,380.8 L763.9,383.5 L765.6,385.2 L768.6,389.6 L771.7,389.6 L774.3,392.4 L776.1,395.8 L778.4,397.6 L777.2,400.9 L778.9,402.3 L780.0,402.4 L780.6,405.3 L781.6,407.5 L783.9,407.9 L785.4,410.4 L784.6,415.4 L784.5,421.7Z" class="land"/>
<path d="M821.7,390.7 L825.2,394.4 L821.5,394.9 L820.5,397.6 L820.6,401.3 L817.6,404.1 L817.6,408.1 L816.4,414.3 L815.9,412.8 L812.4,414.6 L811.2,412.2 L809.0,411.9 L807.5,410.7 L803.8,412.1 L802.7,410.1 L800.6,410.4 L798.1,409.9 L797.6,404.5 L796.1,403.4 L794.6,399.9 L794.2,396.4 L794.5,392.6 L796.4,389.9 L798.6,391.3 L801.0,390.6 L801.6,387.1 L803.0,386.4 L806.6,385.5 L808.9,382.3 L810.4,379.8 L811.6,378.2 L814.2,376.0 L816.6,373.2 L818.1,370.1 L819.4,370.1 L821.0,372.1 L821.1,373.9 L823.2,375.0 L825.7,376.2 L825.5,377.8 L823.4,378.0 L824.0,380.0 L821.7,381.3 L820.0,385.0 L822.2,388.8 L821.7,390.7Z" class="land"/>
<path d="M847.9,364.0 L848.2,366.7 L848.4,369.0 L847.4,372.7 L846.2,368.6 L844.8,370.6 L845.8,373.6 L844.9,375.5 L841.3,373.1 L840.4,370.2 L841.3,368.3 L839.4,366.4 L838.4,368.1 L837.0,367.9 L834.7,370.2 L834.2,369.0 L835.4,365.6 L837.3,364.4 L839.0,362.9 L840.1,364.7 L842.4,363.6 L842.9,361.8 L845.1,361.7 L844.9,358.6 L847.4,360.5 L847.7,362.6 L847.9,364.0Z" class="land"/>
<path d="M708.7,373.0 L706.0,373.9 L704.5,370.7 L704.0,364.9 L705.4,358.3 L707.5,360.6 L708.9,363.4 L710.4,367.6 L710.0,371.9 L708.7,373.0Z" class="land"/>
<path d="M270.3,357.2 L267.7,357.6 L267.2,357.3 L268.1,356.2 L268.0,354.6 L269.8,354.0 L270.4,354.2 L270.3,357.2Z" class="land"/>
<path d="M840.5,356.5 L839.4,357.8 L838.5,360.4 L837.5,361.6 L835.6,358.8 L836.2,357.7 L837.0,356.6 L837.3,354.1 L839.0,353.8 L838.5,356.6 L840.8,352.7 L840.5,356.5Z" class="land"/>
<path d="M823.6,360.4 L819.5,364.2 L821.0,361.4 L823.3,358.9 L825.1,356.1 L826.7,352.1 L827.3,355.4 L825.3,357.6 L823.6,360.4Z" class="land"/>
<path d="M834.1,350.0 L835.9,351.2 L837.9,351.2 L837.8,352.9 L836.4,354.6 L834.4,355.9 L834.3,354.0 L834.5,351.9 L834.1,350.0Z" class="land"/>
<path d="M845.2,348.9 L846.1,353.4 L843.7,352.3 L843.8,353.7 L844.5,356.2 L843.1,357.1 L842.9,354.3 L842.0,354.0 L841.5,351.6 L843.3,351.9 L843.3,350.4 L841.4,347.3 L844.4,347.4 L845.2,348.9Z" class="land"/>
<path d="M833.0,345.2 L832.1,348.7 L830.8,346.7 L829.2,343.6 L831.9,343.8 L833.0,345.2Z" class="land"/>
<path d="M832.3,323.3 L834.2,324.4 L835.2,323.4 L835.5,324.4 L834.9,326.1 L836.0,329.0 L835.2,332.3 L833.4,333.7 L832.9,336.9 L833.6,340.1 L835.2,340.6 L836.6,340.1 L840.4,342.4 L840.1,344.6 L841.1,345.5 L840.8,347.4 L838.4,345.4 L837.3,343.3 L836.5,344.8 L834.5,342.3 L831.7,342.9 L830.2,342.0 L830.3,340.4 L831.3,339.3 L830.4,338.4 L830.0,339.9 L828.5,337.5 L828.0,335.8 L827.9,331.9 L829.1,333.3 L829.4,326.9 L830.5,323.3 L832.3,323.3Z" class="land"/>
<path d="M256.0,324.4 L255.2,325.4 L252.9,325.4 L251.1,325.5 L250.9,323.8 L251.3,323.2 L253.8,323.2 L255.4,323.6 L256.0,324.4Z" class="land"/>
<path d="M221.1,325.8 L220.1,326.5 L218.4,325.9 L216.7,324.4 L217.0,323.5 L218.3,323.2 L219.0,323.3 L221.1,323.7 L222.7,324.7 L223.3,325.8 L221.1,325.8Z" class="land"/>
<path d="M234.4,317.7 L237.1,318.4 L237.5,317.7 L239.9,317.7 L241.7,318.7 L242.5,318.6 L243.1,320.1 L244.8,320.0 L244.7,321.2 L246.0,321.4 L247.6,322.8 L246.4,324.5 L244.9,323.6 L243.5,323.8 L242.5,323.6 L242.0,324.3 L240.8,324.6 L240.3,323.6 L239.3,324.2 L238.1,326.9 L237.3,326.3 L237.1,325.1 L235.1,324.4 L233.6,324.7 L231.7,324.4 L230.3,325.2 L228.6,323.9 L228.9,322.6 L231.7,323.2 L234.1,323.5 L235.2,322.6 L233.8,320.9 L233.8,319.3 L231.8,318.7 L232.5,317.6 L234.4,317.7Z" class="land"/>
<path d="M798.5,322.6 L795.8,324.5 L793.3,323.3 L793.2,319.8 L794.7,317.9 L798.1,316.8 L799.8,316.9 L800.5,318.5 L799.2,320.2 L798.5,322.6Z" class="land"/>
<path d="M-21.4,320.9 L-21.9,321.6 L-22.6,321.0 L-22.5,319.9 L-23.0,318.4 L-22.9,318.0 L-22.4,317.3 L-22.6,316.5 L-22.4,316.1 L-22.2,316.2 L-21.0,316.9 L-20.4,317.3 L-19.9,317.8 L-19.1,319.2 L-19.2,319.4 L-20.4,320.3 L-21.4,320.9Z" class="land"/>
<path d="M-23.1,314.6 L-24.1,314.9 L-24.6,314.1 L-25.0,313.7 L-25.0,313.5 L-24.7,313.1 L-23.6,313.5 L-22.8,314.1 L-23.1,314.6Z" class="land"/>
<path d="M-25.2,312.5 L-25.3,312.9 L-26.9,312.8 L-26.7,312.3 L-25.2,312.5Z" class="land"/>
<path d="M-27.9,311.9 L-28.1,312.1 L-28.3,312.1 L-29.4,311.9 L-29.8,311.0 L-29.9,310.8 L-29.1,310.3 L-28.8,310.5 L-27.9,311.9Z" class="land"/>
<path d="M-33.1,309.2 L-33.5,309.6 L-34.5,308.9 L-34.4,308.6 L-33.9,308.2 L-33.2,308.3 L-33.1,309.2Z" class="land"/>
<path d="M212.5,306.1 L213.7,307.5 L216.6,307.1 L217.7,308.0 L220.3,310.5 L222.3,312.3 L223.3,312.3 L225.1,313.1 L224.9,314.3 L227.2,314.4 L229.5,316.1 L229.1,317.0 L227.1,317.5 L225.0,317.7 L222.9,317.4 L218.5,317.8 L220.5,315.6 L219.3,314.5 L217.3,314.2 L216.2,313.1 L215.5,310.8 L213.7,310.9 L210.9,309.8 L209.9,309.0 L205.9,308.4 L204.8,307.6 L206.0,306.6 L203.0,306.4 L200.8,308.5 L199.5,308.5 L199.0,309.5 L197.5,309.9 L196.2,309.6 L197.8,308.3 L198.5,306.9 L199.9,306.0 L201.5,305.2 L203.8,304.8 L204.5,304.3 L207.2,304.6 L209.6,304.7 L212.5,306.1Z" class="land"/>
<path d="M219.1,302.0 L218.4,302.2 L217.6,299.9 L216.4,298.7 L217.1,296.2 L218.0,296.3 L219.1,299.7 L219.1,302.0Z" class="land"/>
<path d="M831.9,305.9 L830.5,309.3 L828.9,305.9 L828.6,302.9 L830.4,298.9 L832.9,295.8 L834.3,297.0 L833.7,299.5 L831.9,305.9Z" class="land"/>
<path d="M218.3,290.6 L214.9,291.3 L214.7,289.8 L216.1,289.5 L218.2,289.6 L218.3,290.6Z" class="land"/>
<path d="M220.8,290.6 L220.3,293.5 L219.7,292.9 L219.7,290.8 L218.4,289.2 L218.3,288.8 L220.8,290.6Z" class="land"/>
<path d="M873.4,260.0 L873.8,261.4 L872.0,263.9 L870.8,262.6 L869.2,263.5 L868.4,265.9 L866.4,264.7 L866.4,262.8 L868.1,260.4 L869.9,260.9 L871.1,259.2 L873.4,260.0Z" class="land"/>
<path d="M564.8,253.9 L562.8,255.6 L563.0,256.4 L563.1,256.7 L559.9,258.3 L558.4,257.8 L557.7,256.2 L559.1,256.0 L559.4,256.0 L559.8,255.0 L562.0,255.1 L564.8,253.9Z" class="land"/>
<path d="M531.3,253.8 L533.0,255.1 L535.4,254.9 L537.7,255.2 L537.6,255.9 L539.3,255.4 L538.9,256.6 L534.5,256.9 L534.5,256.3 L530.7,255.5 L531.3,253.8Z" class="land"/>
<path d="M506.1,243.6 L505.0,246.7 L505.4,248.0 L504.8,250.1 L502.4,248.5 L500.9,248.1 L496.5,246.1 L497.0,244.0 L500.6,244.3 L503.7,243.9 L506.1,243.6Z" class="land"/>
<path d="M486.6,231.5 L488.5,234.4 L488.0,239.7 L486.6,239.5 L485.4,240.8 L484.2,239.8 L484.1,234.9 L483.4,232.6 L485.1,232.8 L486.6,231.5Z" class="land"/>
<path d="M892.9,248.0 L891.8,251.2 L892.3,253.2 L890.7,256.1 L886.8,258.0 L881.3,258.2 L876.9,262.8 L874.9,261.3 L874.7,258.2 L869.4,259.1 L865.7,261.0 L862.1,261.1 L865.2,264.1 L863.2,271.0 L861.2,272.7 L859.7,271.1 L860.5,267.4 L858.5,266.3 L857.3,263.5 L860.2,262.3 L861.8,259.7 L864.9,257.6 L867.2,254.9 L873.3,253.7 L876.6,254.5 L879.8,247.3 L881.9,249.2 L886.4,245.2 L888.1,243.6 L890.1,238.7 L889.6,234.1 L890.9,231.6 L894.1,230.8 L895.8,236.4 L895.7,239.7 L892.9,243.8 L892.9,248.0Z" class="land"/>
<path d="M487.7,227.7 L486.7,230.8 L485.3,230.0 L484.6,227.3 L485.2,225.8 L487.2,224.2 L487.7,227.7Z" class="land"/>
<path d="M902.0,219.5 L904.1,220.4 L906.3,218.7 L907.0,223.2 L902.4,224.3 L899.7,228.3 L894.9,225.6 L893.2,230.0 L889.8,230.1 L889.4,226.0 L890.9,222.9 L894.2,222.7 L895.1,217.1 L896.0,214.0 L899.6,218.2 L902.0,219.5Z" class="land"/>
<path d="M261.9,209.9 L264.1,210.5 L267.0,210.4 L265.5,212.0 L264.3,212.3 L260.4,210.6 L259.7,209.2 L260.8,208.0 L261.9,209.9Z" class="land"/>
<path d="M267.6,199.6 L266.1,199.7 L262.1,198.4 L259.3,196.5 L260.3,196.2 L264.4,197.2 L267.5,198.9 L267.6,199.6Z" class="land"/>
<path d="M77.4,202.0 L75.8,202.6 L70.8,200.7 L69.8,199.3 L67.1,197.9 L66.5,196.7 L63.3,196.0 L62.2,193.8 L62.4,192.9 L65.7,193.8 L67.5,194.4 L70.4,194.8 L71.5,196.2 L73.0,198.1 L76.1,199.8 L77.4,202.0Z" class="land"/>
<path d="M285.1,193.2 L283.1,196.8 L285.1,195.4 L287.2,196.3 L286.1,197.7 L288.8,198.8 L290.2,197.8 L293.3,199.0 L292.4,202.0 L294.5,201.3 L294.9,203.4 L295.9,206.0 L294.6,209.5 L293.2,209.7 L291.2,208.9 L291.8,205.6 L291.0,205.1 L287.4,208.6 L285.5,208.4 L287.7,206.5 L284.8,205.6 L281.5,205.8 L275.5,205.7 L275.0,204.5 L276.9,203.1 L275.6,202.0 L278.2,199.5 L281.3,193.1 L283.3,190.8 L285.9,189.4 L287.4,189.6 L286.8,190.7 L285.1,193.2Z" class="land"/>
<path d="M49.0,179.7 L49.0,179.7 L49.0,179.7 L49.0,179.7 L52.0,179.3 L51.0,183.9 L53.7,187.2 L52.5,187.2 L50.6,185.3 L49.5,183.5 L47.9,182.2 L47.4,180.4 L47.5,179.1 L49.0,179.7Z" class="land"/>
<path d="M901.2,193.0 L904.3,200.1 L899.7,198.8 L897.8,204.6 L900.8,208.8 L900.7,211.6 L898.4,209.2 L896.4,212.3 L895.8,208.9 L896.1,205.0 L895.8,200.6 L896.5,197.5 L896.6,192.1 L894.8,188.2 L895.1,182.6 L898.0,180.8 L896.7,178.9 L898.1,178.4 L898.9,181.0 L900.0,184.9 L899.9,188.9 L901.2,193.0Z" class="land"/>
<path d="M437.3,186.9 L431.8,189.2 L427.5,188.6 L430.0,184.4 L428.3,180.3 L432.5,177.1 L434.9,175.3 L437.5,175.1 L440.8,177.6 L439.1,180.4 L439.6,183.3 L437.3,186.9Z" class="land"/>
<path d="M497.3,173.3 L495.5,176.6 L492.3,174.3 L491.8,172.6 L496.4,171.3 L497.3,173.3Z" class="land"/>
<path d="M-13.6,167.2 L-16.7,168.8 L-18.2,167.7 L-18.7,165.8 L-15.9,164.4 L-14.3,163.8 L-12.2,164.1 L-10.9,165.3 L-13.6,167.2Z" class="land"/>
<path d="M449.0,161.1 L445.7,165.5 L448.8,164.9 L452.2,164.9 L451.4,168.2 L448.6,171.9 L451.8,172.1 L454.8,177.3 L456.9,178.0 L458.8,182.6 L459.7,184.2 L463.4,184.9 L463.0,187.5 L461.5,188.7 L462.7,190.8 L459.9,192.9 L455.8,192.9 L450.5,194.0 L449.1,193.2 L447.1,195.1 L444.2,194.6 L442.0,196.2 L440.4,195.3 L444.9,191.1 L447.7,190.2 L442.8,189.6 L442.0,187.9 L445.2,186.7 L443.5,184.5 L444.1,181.9 L448.7,182.2 L449.1,179.9 L447.0,177.3 L443.3,176.6 L442.5,175.5 L443.7,173.7 L442.7,172.6 L441.0,174.5 L440.8,170.6 L439.3,168.6 L440.4,164.4 L442.8,161.1 L445.2,161.4 L449.0,161.1Z" class="land"/>
<path d="M-52.4,155.9 L-54.2,156.6 L-56.3,155.8 L-58.1,154.7 L-55.1,154.0 L-52.7,154.4 L-52.4,155.9Z" class="land"/>
<path d="M213.8,146.9 L212.6,149.0 L211.2,148.6 L210.4,147.4 L210.6,147.2 L211.8,145.9 L213.0,146.0 L213.8,146.9Z" class="land"/>
<path d="M205.7,144.6 L202.1,146.9 L199.9,146.8 L199.2,145.7 L201.5,143.8 L205.7,143.8 L205.7,144.6Z" class="land"/>
<path d="M-71.3,140.3 L-69.4,141.1 L-67.5,140.7 L-65.0,141.7 L-61.9,142.3 L-62.2,142.7 L-64.5,143.6 L-66.9,142.7 L-68.1,141.9 L-70.8,142.2 L-71.5,141.8 L-71.3,140.3Z" class="land"/>
<path d="M195.6,132.7 L196.2,134.5 L197.8,133.9 L199.6,134.9 L202.9,136.3 L206.5,137.6 L206.7,139.5 L209.0,139.2 L211.2,140.5 L208.5,141.8 L203.7,140.8 L201.9,139.0 L198.9,141.2 L194.5,143.2 L193.4,140.9 L189.3,141.3 L191.9,139.3 L192.3,136.1 L193.4,132.4 L195.6,132.7Z" class="land"/>
<path d="M413.5,129.5 L412.8,132.1 L416.3,134.9 L412.2,137.9 L403.3,140.7 L400.7,141.5 L396.6,140.9 L388.0,139.6 L391.1,137.8 L384.4,135.8 L389.8,135.0 L389.7,133.8 L383.2,132.9 L385.3,130.3 L390.0,129.7 L394.8,132.4 L399.5,130.2 L403.3,131.4 L408.4,129.2 L413.5,129.5Z" class="land"/>
<path d="M224.3,126.7 L220.8,126.9 L220.1,124.9 L221.4,122.7 L224.2,122.1 L226.6,123.2 L226.6,124.9 L226.3,125.5 L224.3,126.7Z" class="land"/>
<path d="M-81.5,129.0 L-79.4,130.0 L-80.1,127.0 L-71.7,127.6 L-65.7,131.4 L-68.7,133.2 L-73.8,133.6 L-73.9,137.6 L-75.1,138.4 L-78.0,138.3 L-80.3,136.9 L-84.4,135.7 L-85.1,133.9 L-88.3,133.3 L-91.8,133.8 L-93.4,132.4 L-92.8,130.9 L-96.5,131.8 L-95.1,133.7 L-96.8,135.5 L-96.8,119.4 L-89.3,122.4 L-81.2,126.5 L-81.5,129.0Z" class="land"/>
<path d="M163.3,118.8 L161.4,120.2 L157.2,119.0 L154.7,119.4 L150.5,117.6 L153.2,116.3 L155.4,114.6 L158.6,115.7 L160.5,116.5 L161.4,117.2 L163.3,118.8Z" class="land"/>
<path d="M1013.3,111.8 L1009.9,112.0 L1009.3,110.7 L1013.3,109.0 L1013.3,111.8Z" class="land"/>
<path d="M-92.8,111.6 L-96.8,111.8 L-96.8,109.0 L-96.4,108.9 L-93.8,108.9 L-89.4,110.0 L-89.6,110.6 L-92.8,111.6Z" class="land"/>
<path d="M179.0,117.2 L179.0,121.3 L183.1,118.2 L186.8,120.8 L185.9,123.8 L188.9,126.5 L192.1,123.6 L194.3,120.1 L194.5,115.6 L198.9,116.0 L203.4,116.6 L207.6,118.6 L207.8,120.6 L205.5,122.7 L207.6,124.9 L207.3,126.8 L201.2,129.7 L196.9,130.3 L193.7,129.1 L192.8,131.1 L189.9,134.5 L189.0,136.3 L185.4,139.0 L181.0,139.3 L178.5,141.0 L178.3,143.6 L174.7,144.1 L171.0,147.4 L167.6,152.0 L166.4,155.1 L166.3,159.8 L170.8,160.5 L172.2,164.3 L173.6,167.4 L177.9,166.6 L183.7,168.3 L186.7,169.8 L188.9,171.8 L192.8,172.9 L196.1,174.6 L201.2,174.8 L204.5,175.2 L204.0,178.7 L205.0,182.8 L207.2,187.3 L211.8,191.1 L214.2,189.8 L215.8,185.6 L214.2,179.3 L212.1,177.1 L217.0,175.2 L220.5,172.4 L222.2,169.6 L221.9,166.9 L219.9,163.5 L216.1,160.4 L219.7,156.2 L218.4,152.5 L217.4,146.2 L219.5,145.3 L224.8,146.4 L228.0,146.8 L230.5,145.7 L233.4,147.1 L237.2,149.4 L238.1,151.0 L243.6,151.3 L243.5,154.7 L244.6,159.8 L247.4,160.4 L249.6,162.8 L254.1,160.6 L257.0,156.1 L259.1,154.2 L261.5,157.8 L265.5,163.0 L268.9,167.8 L267.7,170.4 L271.8,172.7 L274.5,175.0 L279.4,176.0 L281.4,177.3 L282.6,180.7 L285.1,181.3 L286.3,182.8 L286.5,187.3 L284.3,188.8 L282.1,190.3 L277.0,191.7 L273.1,195.0 L267.9,195.7 L261.3,194.8 L256.7,194.8 L253.5,195.1 L250.9,198.0 L247.0,199.8 L242.5,205.1 L239.0,208.8 L241.6,208.2 L246.5,202.9 L253.0,199.5 L257.6,199.1 L260.3,201.1 L257.4,203.8 L258.4,208.1 L259.4,211.2 L263.4,213.2 L268.5,212.6 L271.6,208.1 L271.8,211.0 L273.8,212.5 L270.0,215.1 L263.2,217.5 L260.1,219.2 L256.7,222.1 L254.3,221.8 L254.2,218.4 L259.6,215.0 L254.6,215.2 L251.2,215.6 L251.7,217.0 L248.4,218.9 L245.3,220.3 L242.0,221.5 L240.2,224.2 L239.9,224.8 L239.8,227.0 L240.8,229.1 L242.1,229.2 L241.8,227.7 L242.7,228.6 L242.5,229.8 L240.4,230.4 L238.9,230.4 L236.6,231.1 L235.3,231.3 L233.5,231.5 L230.9,232.6 L235.5,231.9 L236.4,232.6 L232.1,233.9 L230.1,233.9 L230.2,233.4 L229.2,234.5 L230.1,234.7 L229.5,237.6 L227.2,240.7 L227.0,239.7 L226.3,239.4 L225.3,238.4 L226.0,240.6 L226.7,241.3 L226.8,242.9 L225.8,244.4 L224.1,247.7 L223.8,247.5 L224.7,244.7 L223.1,243.2 L222.8,239.8 L222.2,241.6 L222.9,244.1 L220.9,243.5 L222.9,244.8 L223.1,248.7 L224.0,248.9 L224.3,250.3 L224.7,254.4 L222.7,257.4 L219.6,258.6 L217.5,261.0 L216.0,261.2 L214.4,262.7 L214.0,264.1 L210.6,266.7 L208.9,268.6 L207.4,271.0 L206.9,273.9 L207.5,276.7 L208.5,280.1 L209.9,283.0 L209.9,284.7 L211.4,289.4 L211.3,292.1 L211.1,293.7 L210.4,296.2 L209.4,296.7 L207.9,296.2 L207.4,294.4 L206.3,293.5 L204.6,290.0 L203.2,286.9 L202.7,285.4 L203.4,282.7 L202.5,280.5 L200.1,277.1 L198.9,276.5 L195.8,278.3 L195.2,278.1 L193.7,276.2 L191.8,275.2 L188.3,275.7 L185.6,275.3 L183.2,275.5 L181.9,276.1 L182.5,277.2 L182.5,278.9 L183.1,279.7 L182.5,280.2 L181.4,279.6 L180.2,280.4 L178.0,280.3 L175.7,278.1 L173.0,278.6 L170.7,277.7 L168.8,278.0 L166.2,278.9 L163.4,281.9 L160.4,283.7 L158.7,285.6 L158.0,287.4 L157.9,290.2 L158.1,292.1 L158.7,293.5 L158.7,293.5 L158.7,293.5 L157.5,297.1 L156.9,300.0 L156.7,305.4 L156.4,307.3 L157.0,309.6 L157.9,311.5 L158.5,314.7 L160.6,317.7 L161.3,320.0 L162.5,322.0 L165.8,323.0 L167.0,324.7 L169.8,323.6 L172.1,323.2 L174.4,322.5 L176.4,321.8 L178.3,320.1 L179.1,317.8 L179.3,314.4 L179.8,313.2 L181.9,312.1 L185.2,311.2 L187.9,311.3 L189.8,311.0 L190.5,311.8 L190.4,313.8 L188.8,316.2 L188.0,318.7 L188.6,319.4 L188.1,321.1 L187.4,324.3 L186.6,323.2 L185.9,323.3 L186.0,323.9 L186.5,323.9 L186.5,325.0 L186.0,326.7 L186.3,327.4 L185.9,328.8 L186.1,329.2 L185.8,331.2 L185.2,332.3 L184.6,332.4 L184.0,333.8 L185.0,334.6 L185.3,334.0 L186.2,334.5 L186.5,334.6 L187.2,333.9 L188.0,333.9 L188.3,334.2 L188.8,334.0 L190.2,334.4 L191.7,334.3 L192.7,333.8 L193.0,333.4 L194.0,333.6 L194.7,333.9 L195.6,333.8 L196.2,333.4 L197.6,334.0 L198.1,334.1 L199.0,334.8 L199.9,335.7 L201.0,336.3 L201.8,337.4 L201.6,337.8 L201.4,338.7 L201.7,340.2 L201.0,341.6 L200.7,343.2 L200.6,345.0 L200.7,346.0 L200.8,347.9 L200.4,348.3 L200.1,350.0 L200.3,351.1 L199.6,352.1 L199.8,353.2 L200.3,353.8 L201.0,356.0 L202.2,357.7 L203.7,359.4 L204.8,360.8 L204.7,361.7 L206.0,361.9 L206.2,361.5 L207.1,362.5 L208.6,362.2 L209.9,361.2 L211.8,360.4 L212.8,359.2 L214.6,359.4 L214.4,359.8 L216.2,360.0 L217.5,360.7 L218.5,361.9 L219.7,363.0 L221.3,363.1 L223.6,360.3 L224.9,359.9 L224.9,358.5 L225.5,355.1 L227.2,353.3 L229.2,353.2 L229.4,352.3 L231.8,352.7 L234.3,350.6 L235.5,349.7 L237.0,347.8 L238.1,348.0 L238.9,349.1 L238.3,350.5 L238.2,351.4 L236.4,351.9 L237.4,353.7 L237.3,355.8 L236.0,358.2 L237.1,361.4 L238.5,361.1 L239.2,358.2 L238.2,356.8 L238.0,353.7 L241.9,352.1 L241.5,350.2 L242.5,348.9 L243.7,351.7 L245.8,351.8 L247.8,354.1 L247.9,355.4 L250.7,355.4 L254.0,355.0 L255.8,356.8 L258.1,357.3 L259.9,356.1 L259.9,355.0 L263.7,354.8 L267.4,354.7 L264.8,355.9 L265.8,357.8 L268.3,358.1 L270.6,360.1 L271.1,363.4 L272.7,363.3 L273.9,364.2 L276.0,365.7 L277.9,368.4 L278.0,370.4 L279.1,370.5 L280.8,372.5 L282.0,373.9 L285.7,374.7 L286.0,374.0 L288.5,373.7 L291.8,374.8 L292.9,375.2 L295.2,376.2 L298.4,379.6 L298.9,381.3 L300.0,381.1 L300.7,383.3 L302.5,390.4 L304.1,391.0 L304.2,393.8 L301.9,397.1 L302.8,398.4 L308.3,399.0 L308.4,403.0 L310.7,400.4 L314.6,401.9 L319.7,404.3 L321.3,406.7 L320.7,408.9 L324.3,407.7 L330.3,409.8 L334.9,409.7 L339.5,413.0 L343.4,417.5 L345.8,418.7 L348.4,418.9 L349.6,420.1 L350.6,425.3 L351.1,427.7 L349.9,434.4 L348.3,437.0 L344.0,442.7 L342.0,447.2 L339.7,450.7 L339.0,450.8 L338.1,453.8 L338.3,461.4 L337.5,467.6 L337.1,470.3 L336.2,471.8 L335.6,477.2 L332.5,482.5 L332.0,486.7 L329.5,488.4 L328.7,490.9 L325.4,490.9 L320.5,492.4 L318.4,494.2 L314.9,495.4 L311.3,498.6 L308.7,502.6 L308.2,505.6 L308.7,507.9 L308.2,512.0 L307.5,513.9 L305.3,516.1 L301.9,523.3 L299.2,526.5 L297.1,528.4 L295.7,532.2 L293.6,534.5 L292.3,537.0 L288.8,539.3 L286.5,538.5 L284.9,538.9 L282.0,537.2 L279.9,537.3 L278.1,535.1 L277.8,537.2 L281.8,540.7 L281.3,543.4 L283.3,545.2 L283.1,547.2 L280.1,552.4 L275.6,554.5 L269.4,555.4 L266.0,555.0 L266.6,557.4 L266.0,560.4 L266.6,562.4 L264.7,563.8 L261.6,564.4 L258.6,562.9 L257.4,564.0 L257.9,568.0 L259.9,569.2 L261.6,568.0 L262.5,570.0 L259.7,571.3 L257.2,573.8 L256.8,577.9 L256.0,580.0 L253.1,580.1 L250.7,582.1 L249.8,585.2 L252.9,588.1 L255.8,588.9 L254.7,592.6 L251.1,594.8 L249.1,599.6 L246.3,601.2 L245.0,603.1 L246.0,607.3 L248.1,609.6 L246.8,609.4 L244.0,609.4 L242.5,610.4 L239.8,611.8 L239.3,615.6 L238.0,615.7 L234.5,614.4 L231.0,611.6 L227.1,609.2 L226.1,606.7 L227.0,604.3 L225.5,601.6 L225.1,594.7 L226.4,590.9 L229.6,587.7 L225.0,586.6 L227.9,583.0 L228.9,576.3 L232.4,577.7 L234.0,569.3 L231.9,568.2 L231.0,573.3 L229.0,572.7 L230.0,566.9 L231.0,559.5 L232.4,556.7 L231.6,552.8 L231.3,548.2 L232.6,548.1 L234.5,541.5 L236.6,535.1 L237.9,529.1 L237.2,523.0 L238.1,519.7 L237.8,514.7 L239.6,509.7 L240.1,501.9 L241.1,493.5 L242.1,484.5 L241.9,477.9 L241.2,472.2 L238.1,469.9 L237.9,468.2 L231.7,464.2 L226.2,459.7 L223.8,457.2 L222.6,453.9 L223.1,452.7 L220.5,447.4 L217.4,440.0 L214.5,431.9 L213.2,430.1 L212.3,427.1 L209.9,424.5 L207.7,422.8 L208.7,421.0 L207.2,417.2 L208.1,414.4 L210.6,411.8 L212.2,408.8 L211.6,407.0 L210.4,408.9 L208.5,407.1 L209.2,406.0 L208.7,402.3 L209.7,401.7 L210.3,399.2 L211.5,396.6 L211.3,394.9 L212.9,394.1 L215.1,392.5 L214.6,391.2 L215.8,390.9 L215.7,388.9 L216.4,387.4 L217.9,387.2 L219.2,384.6 L220.4,382.5 L219.3,381.5 L219.8,379.2 L219.1,375.5 L219.8,374.4 L219.3,371.0 L218.1,368.9 L217.0,367.7 L216.4,365.5 L217.1,364.4 L216.4,364.2 L215.8,362.8 L214.2,361.7 L212.9,362.0 L212.3,363.4 L211.0,364.4 L210.4,364.5 L210.1,365.4 L211.5,367.5 L210.7,368.1 L210.2,368.7 L208.8,368.9 L208.3,366.5 L207.9,367.1 L206.8,366.9 L206.2,365.3 L205.0,365.0 L204.2,364.5 L202.8,364.5 L202.7,365.4 L202.4,364.8 L200.7,363.9 L200.1,363.1 L200.4,362.4 L200.3,361.5 L199.5,360.5 L198.3,359.7 L197.2,359.2 L197.0,358.0 L196.2,357.3 L196.4,358.5 L195.8,359.4 L195.1,358.3 L194.1,357.9 L193.7,357.1 L193.7,355.9 L194.1,354.6 L193.2,354.0 L193.9,353.2 L192.9,352.0 L191.4,350.3 L190.7,349.0 L189.4,347.7 L187.9,345.9 L188.2,345.3 L188.7,345.9 L189.0,345.6 L188.4,344.3 L187.5,344.0 L187.2,344.9 L185.4,344.9 L184.3,344.5 L183.0,343.7 L181.3,343.4 L180.4,342.5 L178.8,341.8 L176.9,341.8 L175.5,341.0 L173.8,339.3 L170.3,334.9 L168.7,333.6 L166.2,332.6 L164.5,332.9 L162.0,334.4 L160.5,334.8 L158.3,333.7 L156.0,333.0 L153.1,331.1 L150.8,330.5 L147.3,328.7 L144.7,326.7 L143.9,325.6 L142.2,325.4 L139.1,324.1 L137.8,322.3 L134.5,320.0 L132.9,317.4 L132.2,315.5 L133.2,315.1 L132.9,313.9 L133.6,312.9 L133.6,311.5 L132.6,309.7 L132.3,308.1 L131.3,306.0 L128.6,302.0 L125.5,298.8 L124.0,296.3 L121.3,294.7 L120.7,293.7 L121.2,291.2 L119.6,290.2 L117.8,288.3 L117.0,285.5 L115.4,285.1 L113.6,283.0 L112.2,281.0 L112.0,279.8 L110.4,276.7 L109.3,273.6 L109.3,272.1 L107.1,270.5 L106.1,270.7 L104.3,269.5 L103.8,271.2 L104.3,273.1 L104.6,276.2 L105.7,277.8 L108.0,280.6 L108.5,281.6 L108.9,281.8 L109.3,283.2 L109.9,283.2 L110.5,285.8 L111.4,286.8 L112.1,288.2 L114.0,290.3 L115.1,294.1 L116.0,295.8 L116.8,297.7 L117.0,299.9 L118.5,300.0 L119.7,301.8 L120.8,303.6 L120.8,304.4 L119.5,305.8 L118.9,305.8 L118.1,303.4 L116.1,301.1 L113.9,299.1 L112.3,298.1 L112.4,295.1 L111.9,292.9 L110.5,291.7 L108.3,289.9 L107.9,290.4 L107.2,289.3 L105.3,288.4 L103.4,286.0 L103.7,285.7 L104.9,285.9 L106.1,284.4 L106.2,282.6 L103.8,279.7 L102.0,278.6 L100.9,276.1 L99.7,273.4 L98.3,270.2 L97.0,266.6 L96.5,264.5 L94.5,262.2 L93.1,261.7 L92.8,260.5 L91.0,260.3 L89.9,259.2 L87.1,258.8 L86.3,258.2 L85.9,256.0 L82.9,251.9 L80.3,246.3 L80.4,245.4 L79.1,244.0 L76.7,240.6 L76.3,237.3 L74.6,235.1 L75.3,231.8 L75.2,228.3 L74.2,225.2 L75.4,221.4 L76.2,214.1 L75.6,208.7 L74.6,205.2 L73.7,203.3 L74.1,202.5 L78.6,203.9 L80.2,207.7 L81.0,206.7 L80.5,203.3 L79.4,200.0 L79.0,200.0 L73.0,196.1 L70.8,194.3 L65.3,192.6 L63.5,189.1 L64.0,186.6 L60.0,184.9 L59.5,181.6 L55.8,178.7 L55.7,176.6 L54.0,175.1 L51.3,173.8 L50.4,170.3 L46.4,167.0 L44.8,163.2 L41.8,162.9 L36.9,162.8 L33.3,161.6 L26.9,157.4 L24.0,156.7 L18.6,155.2 L14.3,155.6 L8.2,153.7 L4.6,152.0 L1.2,152.9 L1.8,155.7 L0.1,155.9 L-3.5,156.8 L-6.2,158.1 L-9.6,159.0 L-10.1,156.6 L-8.7,152.6 L-5.4,151.4 L-6.2,150.4 L-10.2,152.6 L-12.3,155.3 L-16.7,158.2 L-14.5,160.2 L-17.4,163.1 L-20.7,164.8 L-23.8,166.0 L-24.5,167.8 L-29.3,169.9 L-30.3,171.8 L-33.9,173.5 L-36.0,173.2 L-38.9,174.3 L-42.1,175.7 L-44.6,177.0 L-49.9,178.2 L-50.4,177.5 L-47.0,175.6 L-44.0,174.4 L-40.7,172.2 L-36.9,171.7 L-35.4,170.1 L-31.1,167.6 L-30.4,166.8 L-28.1,165.4 L-27.6,162.3 L-26.0,160.0 L-29.6,161.2 L-30.6,160.5 L-32.2,161.9 L-34.3,159.9 L-35.1,161.4 L-36.2,159.3 L-39.3,161.0 L-41.2,161.0 L-41.5,158.5 L-40.9,157.1 L-42.9,155.6 L-46.9,156.4 L-49.5,154.5 L-51.6,153.5 L-51.7,151.2 L-54.0,149.5 L-52.8,147.2 L-50.3,144.9 L-49.2,142.9 L-46.7,142.6 L-44.6,143.2 L-42.1,141.3 L-39.9,141.6 L-37.5,140.4 L-38.1,138.5 L-39.8,137.8 L-37.6,136.2 L-39.4,136.3 L-42.7,137.2 L-43.7,138.0 L-46.1,137.2 L-50.4,137.6 L-55.0,136.6 L-56.3,135.0 L-60.2,132.7 L-55.8,131.0 L-49.0,129.0 L-46.4,129.0 L-46.8,131.0 L-40.3,130.9 L-42.8,128.4 L-46.6,126.8 L-48.8,124.8 L-51.8,123.1 L-56.0,121.8 L-54.3,119.7 L-48.8,119.6 L-44.9,117.7 L-44.2,115.7 L-41.0,113.8 L-38.0,113.4 L-32.2,111.6 L-29.4,111.8 L-24.6,109.7 L-19.9,110.5 L-17.7,112.4 L-16.3,111.6 L-11.1,111.8 L-11.3,112.7 L-6.6,113.4 L-3.5,113.0 L3.0,114.3 L9.0,114.7 L11.3,115.2 L15.5,114.6 L20.1,115.8 L23.5,116.3 L29.2,117.3 L34.1,119.3 L37.3,119.6 L40.0,117.9 L43.7,116.7 L48.3,117.2 L52.9,115.4 L58.0,114.4 L60.1,116.1 L62.4,115.1 L63.1,113.2 L65.2,113.6 L70.4,117.3 L74.5,114.5 L75.0,117.6 L78.8,116.9 L79.9,115.8 L83.7,116.0 L88.4,117.7 L95.6,119.2 L99.8,119.9 L102.8,119.6 L107.0,121.6 L102.7,123.6 L108.2,124.5 L116.6,124.0 L119.2,123.3 L122.5,125.8 L125.8,123.7 L122.7,122.0 L124.7,120.6 L128.4,120.4 L130.9,120.0 L133.4,121.0 L136.5,123.2 L139.9,122.9 L145.4,124.7 L150.2,124.0 L154.7,124.1 L154.3,121.6 L157.0,120.9 L161.8,122.3 L161.8,126.1 L163.8,122.9 L166.3,123.0 L167.6,118.9 L164.3,116.4 L160.7,114.8 L161.0,110.3 L164.6,107.4 L168.7,108.1 L171.8,109.8 L176.0,114.4 L173.3,116.4 L179.0,117.2Z" class="land"/>
<path d="M106.2,102.6 L104.6,104.5 L111.5,103.2 L115.8,105.3 L119.3,103.2 L122.1,104.5 L124.6,108.5 L126.2,106.8 L124.0,102.7 L126.7,102.1 L129.7,102.7 L133.2,104.4 L135.1,108.3 L136.1,111.2 L141.3,113.2 L146.8,115.1 L146.5,116.9 L141.4,117.2 L143.4,118.7 L142.4,120.2 L136.8,119.6 L131.5,118.5 L127.9,118.7 L122.1,120.1 L113.0,120.8 L108.8,121.1 L107.1,119.2 L102.9,118.1 L100.2,118.5 L96.4,115.3 L98.4,114.9 L103.2,114.2 L107.6,114.4 L111.6,113.7 L105.6,112.7 L99.0,113.1 L94.7,113.0 L93.0,111.5 L100.2,109.9 L95.4,109.9 L90.0,108.9 L92.6,105.8 L94.8,104.2 L103.0,101.8 L106.2,102.6Z" class="land"/>
<path d="M136.0,101.4 L133.3,104.0 L128.5,101.2 L129.5,100.6 L133.6,100.5 L136.0,101.4Z" class="land"/>
<path d="M222.8,102.6 L223.1,103.7 L219.8,103.6 L216.5,103.5 L213.1,104.1 L212.2,103.8 L208.8,101.7 L209.0,100.2 L210.4,100.0 L217.5,100.4 L222.8,102.6Z" class="land"/>
<path d="M191.3,102.4 L193.7,104.9 L196.6,101.7 L204.4,100.0 L209.7,104.2 L209.2,106.8 L215.3,105.7 L218.2,104.1 L225.1,106.1 L229.3,108.0 L229.7,109.8 L235.5,108.9 L238.7,111.5 L246.1,113.0 L248.8,114.7 L251.7,118.5 L246.1,120.3 L253.3,123.0 L258.2,123.9 L262.6,127.6 L267.5,127.9 L266.5,130.7 L261.1,135.4 L257.3,133.7 L252.5,129.8 L248.5,130.3 L248.1,132.6 L251.3,134.9 L255.5,136.8 L256.8,137.9 L258.8,141.9 L257.7,144.8 L253.9,143.7 L246.1,140.4 L250.5,143.9 L253.7,146.4 L254.2,147.8 L245.8,146.2 L239.2,143.8 L235.5,141.9 L236.6,140.7 L232.0,138.6 L227.5,136.7 L227.5,137.8 L218.6,138.5 L216.0,137.1 L218.0,134.1 L223.8,134.1 L230.2,133.5 L229.1,132.1 L230.2,130.1 L234.2,126.1 L233.3,124.4 L232.2,123.0 L227.4,121.0 L221.2,119.6 L223.2,118.6 L219.9,116.1 L217.2,115.9 L214.7,114.5 L213.1,115.7 L207.5,116.2 L196.3,115.3 L189.8,114.1 L184.8,113.5 L182.2,112.1 L185.4,110.2 L181.0,110.2 L180.1,106.1 L182.4,102.5 L185.6,100.9 L193.6,99.8 L191.3,102.4Z" class="land"/>
<path d="M148.8,99.6 L152.4,100.5 L157.9,100.0 L158.7,101.1 L155.9,103.1 L160.5,104.8 L160.0,108.5 L154.9,110.0 L151.9,109.7 L149.8,108.1 L142.2,105.0 L142.2,103.7 L148.5,104.2 L145.1,101.6 L148.8,99.6Z" class="land"/>
<path d="M901.0,102.2 L896.4,102.2 L890.0,101.8 L889.5,101.6 L892.4,100.0 L896.3,99.6 L900.7,101.1 L901.0,102.2Z" class="land"/>
<path d="M170.8,104.0 L167.5,107.0 L164.0,106.8 L162.1,103.3 L162.1,101.3 L163.8,99.6 L166.8,98.5 L173.2,98.6 L179.1,99.6 L174.5,103.2 L170.8,104.0Z" class="land"/>
<path d="M86.8,109.5 L78.7,111.5 L77.0,109.8 L69.9,107.6 L70.9,106.3 L73.4,103.0 L76.0,100.3 L73.0,97.8 L83.4,97.2 L87.9,98.0 L95.7,98.3 L98.7,99.4 L102.0,101.1 L98.2,102.1 L90.6,105.0 L86.8,107.8 L86.8,109.5Z" class="land"/>
<path d="M923.0,94.6 L919.4,96.2 L914.5,95.9 L908.8,94.3 L909.5,93.0 L915.3,93.6 L923.0,94.6Z" class="land"/>
<path d="M169.6,95.0 L167.9,96.6 L163.4,96.3 L159.7,95.3 L161.3,93.4 L165.7,92.4 L168.4,93.8 L169.6,95.0Z" class="land"/>
<path d="M905.6,92.7 L903.2,95.7 L891.8,95.6 L886.7,96.5 L880.6,93.9 L882.2,91.1 L886.3,90.4 L894.5,90.5 L905.6,92.7Z" class="land"/>
<path d="M154.5,88.0 L156.8,89.9 L156.9,92.0 L155.5,95.0 L150.5,95.4 L147.1,94.7 L147.2,92.4 L142.1,92.7 L142.0,89.6 L145.3,89.7 L149.9,88.3 L154.2,88.5 L154.5,88.0Z" class="land"/>
<path d="M124.5,90.1 L125.7,91.5 L128.5,90.9 L131.7,91.0 L132.3,93.0 L130.4,94.9 L120.0,95.6 L112.2,97.3 L107.5,97.4 L107.1,96.1 L113.5,94.3 L99.6,94.8 L95.3,94.1 L99.5,90.1 L102.4,89.0 L111.0,90.4 L116.5,92.7 L121.9,93.1 L117.5,89.2 L120.3,87.7 L123.5,88.2 L124.5,90.1Z" class="land"/>
<path d="M635.6,112.3 L633.8,112.6 L623.7,112.1 L622.9,110.3 L617.3,109.2 L616.9,107.0 L620.0,106.2 L619.9,104.0 L626.0,100.5 L623.2,100.0 L630.6,96.5 L629.8,94.6 L636.7,92.5 L646.8,89.9 L657.1,89.2 L662.4,87.7 L668.4,87.1 L670.5,88.7 L668.5,90.0 L657.5,92.0 L648.1,93.9 L638.5,97.8 L633.9,101.7 L629.1,105.6 L629.7,108.9 L635.6,112.3Z" class="land"/>
<path d="M166.3,86.5 L169.7,87.8 L175.7,87.8 L178.4,89.1 L177.7,90.6 L181.2,91.5 L183.2,92.5 L187.4,92.7 L191.9,93.0 L196.8,92.1 L203.0,91.8 L208.1,92.1 L211.4,93.6 L212.0,95.3 L210.1,96.4 L205.5,97.2 L201.6,96.7 L192.7,97.3 L186.4,97.4 L181.4,96.9 L173.2,95.6 L172.2,93.4 L171.8,91.4 L168.7,89.6 L162.3,89.1 L158.7,87.9 L159.9,86.2 L166.3,86.5Z" class="land"/>
<path d="M99.9,84.3 L99.5,87.4 L97.1,88.8 L94.2,89.0 L88.5,90.7 L83.6,91.3 L79.4,90.5 L79.4,90.5 L84.6,87.4 L91.0,84.8 L95.7,84.9 L99.9,84.3Z" class="land"/>
<path d="M788.1,87.0 L788.9,89.0 L791.7,88.0 L800.7,88.1 L807.7,90.0 L810.2,91.5 L809.4,93.6 L806.0,94.8 L797.9,97.1 L795.6,98.3 L799.4,98.8 L803.9,99.9 L806.7,99.1 L808.3,101.7 L809.6,100.6 L814.6,100.0 L824.5,100.7 L825.2,102.6 L838.1,103.2 L838.3,100.1 L844.8,100.8 L849.8,100.8 L854.7,102.9 L856.2,105.5 L854.3,107.2 L858.2,110.3 L863.1,112.0 L866.0,107.8 L871.0,109.6 L876.2,108.5 L882.2,109.7 L884.5,108.6 L889.5,109.2 L887.3,105.4 L891.4,103.7 L919.2,106.3 L921.8,108.7 L929.9,111.8 L942.4,111.0 L948.5,111.7 L951.1,113.3 L950.7,116.3 L954.5,117.4 L958.6,116.6 L964.1,116.5 L969.9,117.3 L975.7,116.9 L981.1,120.4 L984.9,119.2 L982.4,116.6 L983.8,114.8 L993.7,115.9 L1000.1,115.7 L1008.9,117.6 L1013.3,119.4 L1013.3,135.5 L1013.2,135.5 L1009.3,137.3 L1005.3,137.0 L1008.1,139.1 L1009.9,142.4 L1011.3,143.5 L1011.7,145.2 L1010.9,146.3 L1005.1,145.4 L996.5,148.4 L993.8,148.9 L989.1,151.7 L984.6,154.2 L983.4,156.1 L979.0,153.3 L971.0,156.4 L969.6,154.9 L966.6,156.7 L962.5,156.1 L961.5,158.8 L957.8,162.7 L957.9,164.3 L961.4,165.2 L961.0,171.1 L958.2,171.3 L956.8,174.6 L958.1,176.4 L952.7,178.4 L951.7,183.1 L947.1,184.0 L946.1,188.1 L941.7,191.9 L940.5,189.1 L939.2,183.2 L937.5,174.2 L939.0,168.6 L941.6,166.2 L941.8,164.3 L946.5,163.4 L952.1,158.4 L957.4,154.2 L962.9,151.0 L965.4,145.3 L961.6,145.6 L959.8,148.9 L952.0,153.4 L949.4,148.4 L941.5,149.8 L933.8,156.6 L936.3,159.0 L929.4,160.1 L924.7,160.5 L924.9,157.6 L920.1,157.0 L916.3,159.0 L906.8,158.3 L896.7,159.5 L886.7,167.3 L874.9,176.9 L879.7,177.4 L881.3,179.9 L884.3,180.8 L886.2,178.8 L889.6,179.1 L894.1,183.5 L894.2,186.9 L891.8,191.0 L891.5,195.8 L890.1,202.3 L885.5,208.1 L884.4,210.9 L880.2,215.6 L876.1,220.3 L874.1,222.7 L870.0,225.0 L868.0,225.1 L866.1,223.1 L862.0,226.1 L861.5,227.4 L860.3,227.2 L859.0,228.6 L858.1,229.9 L858.2,232.8 L856.6,233.7 L856.0,234.4 L854.9,235.6 L852.8,236.3 L851.5,237.4 L851.4,239.1 L851.0,239.6 L852.2,240.2 L854.0,242.0 L856.7,246.8 L857.4,249.4 L857.4,254.1 L856.3,256.3 L853.5,257.1 L851.0,258.7 L848.2,259.1 L847.9,256.9 L848.5,253.8 L847.1,249.6 L849.4,249.0 L847.3,245.5 L845.8,244.7 L845.4,245.5 L844.5,245.8 L844.4,245.1 L843.6,244.7 L842.8,244.0 L843.6,242.3 L844.3,241.8 L844.1,241.1 L844.9,238.9 L844.7,238.2 L842.9,237.8 L841.4,236.7 L837.1,237.9 L834.8,239.8 L831.5,240.9 L833.1,239.0 L832.5,237.4 L834.9,234.7 L833.3,232.6 L830.6,234.0 L827.1,236.8 L825.2,239.4 L822.2,239.6 L820.6,241.5 L822.3,244.2 L824.8,244.9 L824.9,246.7 L827.3,247.9 L830.8,245.0 L833.5,246.6 L835.5,246.7 L836.0,248.8 L831.7,249.9 L830.2,252.1 L827.2,254.1 L825.6,257.0 L828.9,259.2 L830.2,263.2 L832.0,266.9 L834.1,270.0 L834.1,273.0 L832.1,274.1 L832.9,276.2 L834.7,277.5 L834.2,280.8 L833.4,284.0 L831.7,284.3 L829.5,288.7 L827.0,294.0 L824.1,298.8 L819.9,302.6 L815.6,306.0 L812.1,306.4 L810.2,308.2 L809.1,306.9 L807.4,308.9 L803.1,311.0 L799.8,311.6 L798.8,315.8 L797.1,316.1 L796.3,313.2 L797.0,311.6 L792.9,310.3 L791.4,311.0 L787.3,314.4 L784.7,318.2 L784.0,321.0 L786.4,325.3 L789.3,330.6 L792.1,333.1 L793.9,336.3 L795.4,343.8 L794.9,350.9 L792.4,353.6 L788.8,356.2 L786.3,359.5 L782.5,363.3 L781.4,360.7 L782.2,358.0 L779.9,355.7 L777.4,355.1 L776.1,353.0 L774.5,348.8 L771.8,346.9 L769.1,347.0 L769.6,343.8 L766.9,343.9 L766.6,348.3 L765.0,354.2 L764.0,357.8 L764.2,360.7 L766.2,360.8 L767.4,364.5 L768.0,368.0 L769.7,370.3 L771.6,370.8 L773.2,372.9 L773.9,373.3 L775.7,375.7 L777.0,378.4 L777.2,381.1 L776.8,383.0 L777.1,384.4 L777.4,386.8 L778.5,387.9 L779.7,391.5 L779.6,392.8 L777.4,393.1 L774.5,390.1 L770.9,386.9 L770.5,384.8 L768.7,382.1 L768.3,378.8 L767.2,376.6 L767.5,373.6 L766.8,371.9 L765.6,370.4 L765.1,368.4 L763.5,366.1 L762.0,364.2 L761.5,366.5 L760.9,364.3 L761.2,361.8 L762.1,357.9 L761.8,354.9 L762.8,351.8 L761.7,349.4 L762.0,345.0 L760.7,342.9 L759.7,338.1 L759.2,333.0 L757.8,329.6 L755.8,331.7 L752.3,334.5 L750.6,334.2 L748.7,333.2 L749.7,328.2 L749.1,324.4 L746.7,319.8 L747.0,318.3 L745.2,317.8 L743.0,314.5 L742.2,312.4 L742.0,310.3 L741.4,308.4 L740.1,306.1 L737.3,305.9 L737.5,307.6 L736.6,309.8 L735.3,309.0 L734.8,309.7 L733.9,309.3 L732.8,308.9 L732.3,310.4 L730.2,310.3 L726.4,311.2 L726.6,314.2 L724.9,316.6 L720.5,319.3 L717.1,324.1 L714.7,326.6 L711.7,329.3 L711.7,331.1 L710.1,332.1 L707.3,333.6 L705.9,333.8 L705.0,336.9 L705.6,342.1 L705.8,345.5 L704.5,349.3 L704.5,356.2 L702.9,356.4 L701.5,359.5 L702.4,360.8 L699.6,361.9 L698.6,364.7 L697.3,365.9 L694.4,362.1 L693.0,356.4 L691.8,352.4 L690.7,350.4 L689.1,346.6 L688.3,341.5 L687.8,339.0 L685.0,333.4 L683.7,325.6 L682.8,320.4 L682.8,315.5 L682.2,311.7 L677.7,314.2 L675.5,313.7 L671.5,308.8 L673.0,307.3 L672.1,305.7 L668.4,302.3 L666.2,301.3 L665.3,298.4 L662.9,295.3 L657.2,296.1 L652.2,296.1 L647.8,296.7 L642.0,295.5 L638.7,294.6 L635.2,294.0 L633.9,289.1 L632.4,288.4 L630.0,289.1 L626.9,291.0 L623.2,289.7 L620.1,286.6 L617.1,285.4 L615.0,281.6 L612.8,276.2 L611.1,276.9 L609.1,275.5 L608.0,277.1 L606.2,276.9 L606.8,278.7 L606.5,279.6 L607.5,282.7 L608.7,286.2 L610.2,287.1 L610.8,288.5 L612.9,290.2 L613.1,291.9 L612.7,293.2 L613.1,294.6 L614.0,295.7 L614.4,297.0 L614.9,298.0 L614.7,295.1 L615.5,293.0 L616.4,292.5 L617.3,293.8 L617.4,296.1 L616.7,298.5 L617.3,300.1 L617.8,299.9 L617.9,301.0 L620.3,300.3 L622.9,300.5 L624.8,300.6 L626.9,297.8 L629.2,295.2 L631.1,292.8 L632.0,291.4 L632.4,291.7 L632.1,293.4 L631.7,294.1 L632.1,297.3 L633.5,300.1 L635.2,301.6 L637.5,302.1 L639.3,302.8 L640.7,305.1 L641.5,306.5 L642.6,307.0 L642.6,307.9 L641.5,310.3 L641.0,311.4 L639.7,312.7 L638.6,315.5 L637.2,315.3 L636.5,316.2 L636.0,318.3 L636.4,321.0 L636.1,321.5 L634.7,321.5 L632.8,323.0 L632.5,325.0 L631.8,325.8 L629.9,325.8 L628.6,326.8 L628.7,328.4 L627.2,329.5 L625.5,329.2 L623.4,330.5 L622.0,330.8 L619.8,331.8 L619.2,333.6 L619.1,335.0 L616.0,336.7 L611.1,338.6 L608.3,341.5 L607.0,341.7 L606.0,341.4 L604.2,343.1 L602.3,343.9 L599.7,344.1 L598.9,344.3 L598.2,345.4 L597.4,345.7 L596.9,346.7 L595.4,346.6 L594.4,347.2 L592.3,347.0 L591.5,344.6 L591.6,342.4 L591.1,341.2 L590.5,338.2 L589.6,336.6 L590.2,336.4 L589.9,334.5 L590.3,333.7 L590.1,332.0 L589.7,330.3 L588.8,329.0 L588.6,327.4 L587.0,326.0 L585.3,322.6 L584.5,319.3 L582.3,316.5 L580.9,315.9 L578.9,312.0 L578.5,309.2 L578.7,306.8 L576.9,302.3 L575.5,300.7 L573.8,299.9 L572.8,297.6 L573.0,296.7 L572.1,294.6 L571.2,293.7 L570.0,290.7 L568.1,287.4 L566.5,284.6 L565.0,284.7 L565.5,282.4 L565.6,281.0 L566.0,279.4 L565.9,278.8 L565.0,280.5 L564.4,283.5 L563.5,285.6 L562.8,286.3 L561.8,285.0 L560.4,283.2 L558.2,277.4 L557.9,277.8 L559.2,282.0 L561.1,286.1 L563.4,292.4 L564.5,294.6 L565.5,296.9 L568.3,301.4 L567.7,302.1 L567.8,304.7 L571.4,308.3 L571.9,309.1 L572.9,313.1 L572.2,313.8 L572.7,318.0 L573.8,322.8 L575.0,323.8 L576.7,325.3 L578.4,330.0 L579.3,333.7 L581.0,335.7 L585.2,339.5 L586.9,341.8 L588.6,344.1 L589.5,345.5 L591.1,346.7 L591.8,348.0 L591.7,349.7 L589.9,350.6 L591.3,351.7 L592.3,352.5 L592.9,354.1 L594.3,355.8 L595.8,355.8 L598.7,354.8 L602.1,354.3 L604.8,353.1 L606.3,352.8 L607.4,352.1 L609.2,351.9 L610.1,351.9 L611.6,351.3 L613.2,350.8 L614.7,349.5 L615.8,349.5 L615.9,350.6 L615.6,352.9 L615.6,355.0 L615.0,356.5 L614.1,360.9 L612.6,365.4 L610.7,370.5 L608.1,376.5 L605.4,381.0 L601.8,386.5 L598.7,389.8 L594.1,393.8 L591.2,396.9 L587.9,401.8 L587.1,403.9 L586.4,404.9 L584.3,406.5 L583.5,408.1 L582.4,408.4 L581.9,411.3 L580.9,412.9 L580.3,415.6 L579.1,416.9 L577.7,421.9 L577.9,424.2 L579.8,425.7 L579.9,426.7 L579.1,429.2 L579.3,430.4 L579.1,432.3 L580.1,434.9 L581.4,438.9 L582.5,439.7 L583.0,441.6 L582.9,445.6 L583.3,449.1 L583.4,455.4 L584.0,457.4 L583.0,460.3 L581.8,463.1 L579.9,465.6 L577.1,467.2 L573.6,469.1 L570.1,473.5 L568.9,474.2 L566.8,477.1 L565.5,478.0 L565.2,480.9 L566.7,483.9 L567.3,486.3 L567.3,487.5 L567.9,487.3 L567.8,491.3 L567.3,493.2 L568.0,493.8 L567.6,495.5 L566.3,497.0 L563.7,498.3 L560.0,500.5 L558.7,502.0 L558.9,503.7 L559.7,504.0 L559.5,506.1 L558.7,509.1 L558.3,512.4 L557.5,514.2 L555.4,516.3 L554.8,516.9 L553.5,518.9 L552.6,521.0 L550.9,523.9 L547.4,528.1 L545.2,530.5 L542.9,532.3 L539.7,533.9 L538.1,534.1 L537.7,535.2 L535.8,534.6 L534.3,535.4 L531.0,534.6 L529.1,535.1 L527.8,534.9 L524.6,536.5 L522.0,537.1 L520.1,538.7 L518.7,538.8 L517.4,537.3 L516.4,537.2 L515.0,535.4 L514.9,536.0 L514.5,534.9 L514.5,532.5 L513.5,529.8 L514.5,529.1 L514.4,526.0 L512.4,522.2 L510.8,518.8 L510.8,518.8 L508.6,513.5 L506.3,510.5 L505.1,507.5 L504.4,503.6 L503.7,500.7 L502.6,494.4 L502.6,489.6 L502.2,487.4 L501.0,485.7 L499.4,482.4 L497.8,477.5 L497.1,475.0 L494.6,471.1 L494.4,468.0 L494.1,465.4 L494.5,461.9 L495.6,458.2 L495.8,456.4 L496.8,452.8 L497.5,451.1 L499.3,448.5 L500.3,446.7 L500.6,443.7 L500.4,441.4 L499.5,440.0 L498.7,437.5 L497.9,435.1 L498.1,434.3 L499.0,432.7 L498.1,428.7 L497.5,426.0 L495.9,423.5 L496.2,422.7 L495.8,421.4 L495.0,418.4 L492.4,414.1 L489.3,410.0 L487.2,406.7 L485.3,402.5 L485.4,401.2 L486.1,399.9 L486.9,397.0 L487.5,394.0 L486.9,393.4 L488.0,388.8 L488.4,385.6 L487.2,383.0 L485.8,382.3 L485.2,380.5 L484.4,379.9 L484.4,378.8 L481.2,380.2 L480.1,380.0 L478.9,380.9 L476.4,380.8 L474.8,378.3 L473.7,375.4 L471.6,372.7 L469.2,372.8 L466.5,372.8 L464.0,373.2 L461.5,374.1 L456.7,376.5 L454.9,377.8 L452.2,379.0 L449.4,377.9 L448.0,377.9 L445.9,377.1 L443.9,377.2 L440.2,377.9 L438.1,379.0 L435.0,380.5 L434.4,380.4 L433.6,380.4 L430.5,378.5 L427.6,375.4 L425.0,373.2 L422.9,370.6 L422.1,370.3 L419.9,368.7 L418.3,366.5 L417.7,365.1 L417.4,362.1 L416.0,359.7 L414.8,358.1 L414.0,357.6 L413.3,356.8 L412.9,355.0 L412.5,354.1 L411.6,353.4 L409.9,351.7 L408.6,351.5 L407.9,350.3 L407.9,349.7 L407.0,348.9 L406.8,348.0 L406.3,344.9 L406.7,343.1 L405.4,340.0 L403.9,338.5 L405.2,337.8 L406.7,334.9 L407.5,332.8 L407.2,330.7 L408.0,328.7 L408.4,324.9 L408.1,320.9 L407.7,318.9 L408.0,316.9 L407.2,314.9 L405.6,313.2 L405.7,311.5 L405.9,309.6 L407.1,308.5 L408.1,306.4 L407.9,305.0 L408.9,302.2 L410.7,299.6 L411.7,299.0 L412.5,296.6 L412.6,294.4 L413.7,292.0 L415.7,290.5 L417.7,286.4 L419.3,284.7 L422.2,284.3 L424.6,281.5 L426.1,280.5 L428.7,277.1 L428.0,272.1 L429.1,268.6 L429.5,266.5 L431.5,263.7 L434.6,261.9 L436.9,260.2 L439.0,256.0 L439.9,253.5 L442.2,253.6 L444.1,255.3 L447.0,255.0 L450.2,255.9 L451.5,255.9 L454.5,253.7 L457.8,253.0 L459.8,251.4 L462.7,250.1 L468.0,249.4 L473.1,249.1 L474.6,249.7 L477.5,248.1 L480.8,248.0 L482.1,249.0 L484.2,248.7 L487.5,247.1 L489.7,247.6 L489.6,249.6 L492.2,248.2 L492.4,248.9 L490.9,250.9 L490.9,252.8 L492.0,253.8 L491.5,257.3 L489.5,259.3 L490.1,261.5 L491.7,261.6 L492.5,263.5 L493.6,264.1 L497.3,265.5 L498.6,265.2 L501.1,265.9 L505.2,267.7 L506.7,271.3 L509.4,272.0 L513.8,273.7 L517.1,275.7 L518.6,274.7 L520.1,272.8 L519.3,269.7 L520.3,267.8 L522.5,265.9 L524.6,265.3 L528.8,266.2 L529.9,268.0 L531.0,268.0 L532.0,268.7 L535.1,269.1 L535.8,270.5 L539.9,270.4 L542.9,271.5 L545.9,272.7 L547.4,273.3 L549.7,272.0 L551.0,270.9 L553.7,270.5 L555.9,271.0 L556.8,273.0 L557.5,271.7 L560.0,272.7 L562.4,272.9 L563.9,271.9 L564.8,270.6 L564.6,270.3 L565.4,268.4 L566.0,265.4 L566.4,264.4 L566.5,264.3 L567.6,261.0 L569.2,258.2 L569.2,258.0 L568.9,255.0 L569.7,253.3 L568.6,251.5 L569.7,249.9 L567.8,250.3 L565.3,249.4 L563.1,251.7 L558.5,252.1 L556.0,250.0 L552.6,249.8 L551.9,251.5 L549.8,252.0 L546.8,249.8 L543.5,249.9 L541.6,245.9 L539.4,243.6 L540.9,240.5 L538.9,238.6 L542.3,234.7 L547.1,234.5 L548.4,231.5 L554.3,232.0 L558.0,229.4 L561.6,228.2 L566.7,228.2 L572.0,231.0 L576.5,232.6 L580.1,231.9 L582.7,232.3 L586.4,230.2 L586.8,228.5 L586.0,225.7 L584.3,224.2 L582.6,223.8 L581.4,222.5 L577.5,219.1 L574.0,217.6 L571.3,215.2 L573.6,214.6 L576.1,211.2 L574.4,209.6 L578.9,207.9 L578.9,207.1 L576.1,207.7 L573.6,208.0 L571.6,209.3 L568.7,209.5 L566.0,211.1 L566.2,213.6 L567.7,214.5 L570.9,214.3 L570.3,215.7 L566.9,216.4 L562.7,218.8 L561.0,218.0 L561.7,216.1 L558.3,214.9 L558.8,214.1 L561.8,212.8 L560.9,211.8 L556.1,210.8 L555.9,209.3 L553.0,209.8 L551.9,212.0 L549.5,215.0 L549.6,216.1 L548.1,216.9 L547.1,216.5 L546.3,221.4 L544.7,223.1 L543.6,226.0 L544.5,228.3 L544.9,229.8 L547.6,231.2 L547.0,232.1 L543.4,232.4 L542.1,233.6 L539.5,235.8 L538.5,233.9 L538.6,233.1 L536.7,233.0 L535.1,232.6 L531.3,233.6 L533.5,235.9 L531.9,236.6 L530.2,236.6 L528.6,234.5 L528.0,235.4 L528.7,237.8 L530.2,239.7 L529.1,240.6 L530.8,242.4 L532.3,243.6 L532.3,245.9 L529.5,244.8 L530.4,246.9 L528.4,247.3 L529.6,250.9 L527.6,250.9 L525.0,249.2 L523.9,245.9 L523.3,243.2 L522.1,241.4 L520.6,239.1 L520.4,237.9 L519.8,237.6 L519.8,236.7 L518.1,235.4 L517.8,233.5 L518.1,230.7 L518.5,229.5 L518.0,228.8 L517.3,228.5 L516.4,227.2 L515.1,226.4 L512.2,224.9 L510.4,223.4 L507.6,222.2 L505.0,219.3 L505.6,219.0 L504.2,217.3 L504.2,215.9 L502.2,215.3 L501.2,217.0 L500.3,215.6 L500.4,214.2 L500.5,214.2 L501.2,213.8 L498.7,213.2 L496.2,214.7 L496.4,216.7 L496.0,217.8 L497.0,219.9 L499.9,221.9 L501.5,225.2 L504.9,228.5 L507.3,228.5 L508.1,229.4 L507.2,230.2 L510.0,231.6 L512.2,232.9 L514.9,235.0 L515.2,235.7 L514.6,237.2 L512.9,235.3 L510.2,234.6 L508.9,237.2 L511.2,238.7 L510.8,240.8 L509.5,241.1 L507.9,244.5 L506.6,244.9 L506.6,243.6 L507.2,241.5 L507.9,240.6 L506.7,238.2 L505.7,236.2 L504.5,235.7 L503.6,234.0 L501.6,233.2 L500.2,231.6 L498.0,231.3 L495.5,229.5 L492.7,226.9 L490.6,224.6 L489.7,220.6 L488.1,220.1 L485.6,218.8 L484.2,219.3 L482.4,221.2 L481.1,221.5 L478.4,223.8 L472.3,222.7 L467.8,224.0 L467.4,226.4 L467.6,228.8 L464.7,231.4 L460.7,232.3 L460.4,233.7 L458.5,235.9 L457.4,239.2 L458.6,241.5 L456.8,243.3 L456.1,245.9 L453.8,246.7 L451.6,249.8 L447.7,249.9 L444.7,249.8 L442.8,251.3 L441.6,252.8 L440.1,252.4 L439.0,251.1 L438.1,248.8 L435.2,248.1 L434.0,249.2 L432.4,248.6 L430.8,249.1 L431.2,245.9 L431.0,243.4 L429.6,243.0 L428.8,241.5 L429.1,238.9 L430.3,237.4 L430.5,235.8 L431.2,233.3 L431.1,231.6 L430.5,230.2 L430.4,228.8 L430.5,225.9 L429.3,224.2 L433.6,221.3 L437.4,222.0 L441.5,222.0 L444.8,222.7 L447.4,222.4 L452.4,222.6 L453.9,220.1 L454.5,212.1 L451.4,207.9 L449.1,205.8 L444.4,204.3 L444.1,201.3 L448.1,200.4 L453.2,201.5 L452.3,196.9 L455.2,198.6 L462.3,195.5 L463.3,192.2 L466.0,191.4 L468.4,190.6 L470.0,189.4 L472.7,183.5 L476.9,181.8 L479.5,181.9 L480.1,181.1 L482.7,180.8 L483.3,181.7 L485.4,179.7 L484.7,178.2 L484.5,175.9 L483.3,173.7 L483.2,169.6 L483.7,168.5 L484.6,167.3 L487.3,167.0 L488.4,165.9 L490.8,164.8 L490.7,166.8 L489.8,168.1 L490.2,169.3 L491.9,169.9 L491.1,171.4 L490.2,171.0 L488.0,173.9 L488.8,175.9 L488.9,177.4 L492.0,178.4 L492.0,179.8 L495.1,179.0 L496.8,177.9 L500.3,179.5 L501.8,180.8 L503.9,179.6 L508.7,177.8 L512.6,176.4 L515.6,177.1 L515.9,178.1 L518.8,178.1 L519.5,176.3 L523.8,175.0 L523.1,171.6 L523.3,168.6 L524.8,166.0 L527.7,164.7 L530.1,167.7 L532.6,167.6 L533.2,164.5 L533.5,162.1 L532.4,162.6 L530.5,161.2 L530.2,158.9 L534.1,157.7 L538.0,157.2 L541.3,157.8 L544.5,157.7 L548.0,155.5 L544.8,153.5 L539.2,153.9 L533.8,155.4 L528.7,156.2 L527.0,154.0 L524.0,152.7 L524.7,148.7 L523.2,145.0 L524.6,142.7 L527.4,140.2 L534.5,135.8 L536.5,134.9 L536.2,133.2 L531.9,131.3 L526.6,132.5 L523.6,135.3 L524.1,137.7 L519.2,141.0 L513.3,144.5 L511.0,150.2 L513.2,153.0 L516.2,155.3 L513.3,159.8 L510.1,160.8 L508.9,167.5 L507.2,171.3 L503.4,170.9 L501.7,174.1 L498.1,174.3 L497.1,170.5 L494.6,165.9 L492.2,160.2 L490.2,157.7 L484.1,162.4 L480.0,163.3 L475.7,161.3 L474.6,156.9 L473.6,147.6 L476.5,145.0 L484.6,141.6 L490.7,137.5 L496.3,131.8 L503.7,124.0 L508.9,121.0 L517.4,115.9 L524.1,114.1 L529.2,114.4 L533.9,111.0 L539.5,111.2 L545.1,110.4 L554.7,113.3 L550.7,114.4 L554.1,117.0 L557.3,115.6 L562.4,118.0 L570.8,119.0 L582.5,123.5 L584.8,125.4 L585.0,128.1 L581.6,130.3 L576.6,131.3 L562.8,128.3 L560.5,128.8 L565.6,131.7 L566.0,137.7 L569.9,139.0 L572.3,140.0 L572.7,138.1 L570.8,136.3 L572.9,134.8 L580.3,137.3 L582.9,136.3 L580.8,133.4 L588.0,129.4 L590.9,129.6 L593.7,131.1 L595.5,128.3 L593.0,125.9 L594.5,123.5 L592.2,120.9 L600.8,122.2 L602.6,124.5 L598.7,125.0 L598.7,127.3 L601.1,128.6 L605.9,127.8 L606.7,125.2 L613.1,123.3 L623.9,119.8 L626.2,120.0 L623.1,122.4 L627.0,122.9 L629.2,121.5 L635.0,121.4 L639.5,119.7 L643.1,122.1 L646.6,119.5 L643.3,117.1 L644.9,115.8 L654.0,117.0 L658.3,118.3 L669.5,122.9 L671.5,120.8 L668.4,118.6 L668.3,117.8 L664.6,117.4 L665.6,115.5 L664.0,112.3 L663.9,111.0 L669.6,107.4 L671.6,103.7 L673.9,102.9 L682.0,104.0 L682.7,106.2 L679.8,109.5 L681.7,110.8 L682.7,113.6 L682.0,119.1 L685.4,121.6 L684.1,124.3 L678.0,130.0 L681.5,130.6 L682.8,129.2 L686.2,128.1 L687.0,126.1 L689.6,124.2 L687.8,121.9 L689.3,119.3 L685.9,118.9 L685.2,116.7 L687.6,112.6 L683.6,109.3 L689.1,106.6 L688.4,103.7 L690.0,103.6 L691.6,105.9 L690.4,109.8 L693.7,110.5 L692.3,107.6 L697.4,106.0 L703.8,105.8 L709.5,108.1 L706.8,104.7 L706.5,100.4 L711.8,99.6 L719.3,99.8 L725.9,99.3 L723.4,97.1 L727.0,94.5 L730.5,94.4 L736.5,92.4 L744.7,91.8 L745.7,90.7 L753.8,90.4 L756.3,91.3 L763.3,89.1 L768.9,89.2 L769.8,87.4 L772.7,85.7 L780.0,84.1 L785.3,85.4 L781.1,86.4 L788.1,87.0Z M609.7,231.2 L611.2,234.1 L612.7,234.3 L613.6,235.4 L611.1,235.7 L610.5,238.8 L610.0,240.2 L608.9,241.2 L609.0,243.2 L609.9,246.2 L612.9,247.0 L615.0,249.0 L619.4,249.7 L624.2,248.7 L624.5,247.7 L623.9,244.9 L624.4,240.6 L622.0,239.3 L622.8,236.5 L620.7,236.3 L621.4,232.9 L624.3,233.9 L627.0,232.6 L624.8,230.1 L623.9,227.8 L621.4,228.9 L621.1,231.8 L620.1,229.2 L619.9,228.2 L620.7,226.5 L620.1,225.1 L616.5,223.7 L615.1,220.1 L613.4,219.1 L613.3,217.8 L616.3,218.2 L616.5,215.2 L619.1,214.5 L621.8,215.2 L622.3,211.2 L621.8,208.7 L618.7,208.9 L616.1,207.9 L612.5,209.7 L609.6,210.5 L608.2,212.9 L605.2,213.6 L602.2,217.8 L605.0,221.6 L604.7,224.3 L608.0,229.1 L609.7,231.2Z" class="land"/>
<path d="M168.9,84.8 L167.5,84.9 L161.7,84.6 L160.9,83.5 L167.1,83.6 L169.2,84.3 L168.9,84.8Z" class="land"/>
<path d="M118.4,84.1 L112.7,85.2 L108.1,83.9 L110.6,82.6 L115.1,82.2 L119.5,82.9 L118.4,84.1Z" class="land"/>
<path d="M534.5,83.4 L527.6,85.1 L522.1,84.1 L524.3,83.1 L522.4,81.8 L528.8,81.0 L530.0,82.5 L534.5,83.4Z" class="land"/>
<path d="M120.1,80.4 L116.3,81.2 L111.2,81.2 L111.2,80.6 L114.4,79.4 L116.1,79.6 L120.1,80.4Z" class="land"/>
<path d="M162.7,82.6 L158.2,83.4 L155.6,82.5 L154.3,81.0 L154.1,79.3 L158.1,79.5 L159.9,79.7 L163.6,81.2 L162.7,82.6Z" class="land"/>
<path d="M149.7,81.5 L150.9,83.2 L145.8,82.8 L140.8,81.5 L133.9,81.3 L136.9,80.1 L133.1,79.1 L132.9,77.6 L139.0,78.1 L147.3,79.6 L149.7,81.5Z" class="land"/>
<path d="M782.2,81.6 L764.8,83.2 L770.5,77.9 L773.0,77.4 L775.3,77.7 L783.1,80.0 L782.2,81.6Z" class="land"/>
<path d="M514.5,76.0 L524.6,79.0 L516.9,80.6 L515.2,83.5 L512.5,84.3 L511.0,87.7 L507.3,87.8 L500.7,85.3 L503.5,83.9 L498.8,82.7 L492.8,79.3 L490.4,76.2 L498.8,74.7 L500.5,76.1 L504.9,76.1 L506.1,74.7 L510.6,74.6 L514.5,76.0Z" class="land"/>
<path d="M536.7,73.1 L542.7,74.5 L538.2,76.7 L529.2,77.2 L520.1,76.5 L519.6,75.4 L515.1,75.3 L511.8,73.5 L521.3,72.3 L525.8,73.3 L528.9,72.1 L536.7,73.1Z" class="land"/>
<path d="M615.9,72.5 L611.8,73.1 L609.0,73.4 L608.6,74.1 L605.0,74.7 L601.6,73.8 L603.4,72.5 L596.5,72.4 L602.5,71.6 L607.2,71.6 L607.8,72.7 L609.6,71.7 L612.5,71.0 L617.1,71.9 L615.9,72.5Z" class="land"/>
<path d="M766.4,79.3 L759.7,79.8 L751.1,78.6 L746.0,77.1 L743.6,74.2 L739.4,73.4 L747.4,70.6 L754.1,69.7 L760.0,71.7 L767.1,75.6 L766.4,79.3Z" class="land"/>
<path d="M189.9,76.1 L193.6,77.4 L189.4,78.6 L183.7,81.7 L178.2,82.0 L171.8,81.5 L168.5,79.8 L168.6,78.3 L171.0,77.3 L165.4,77.3 L162.0,76.0 L160.0,74.1 L162.1,72.3 L164.3,71.1 L167.4,70.8 L166.1,69.9 L173.3,69.7 L177.2,71.8 L182.4,72.7 L187.4,73.5 L189.9,76.1Z" class="land"/>
<path d="M247.0,62.2 L255.2,62.5 L261.9,63.0 L267.5,64.1 L267.4,65.2 L259.8,67.0 L252.4,67.8 L249.6,68.7 L256.3,68.7 L249.0,71.1 L244.0,72.3 L238.7,75.6 L232.4,76.2 L230.4,77.1 L221.1,77.5 L225.3,78.0 L223.2,78.7 L225.7,80.7 L222.8,82.1 L218.0,83.2 L216.6,84.8 L212.3,86.0 L212.7,87.0 L218.0,86.8 L218.0,87.8 L209.8,90.2 L201.7,89.1 L192.7,89.7 L188.1,89.2 L182.3,89.0 L181.9,87.1 L187.6,86.2 L186.1,83.2 L187.9,83.0 L196.2,84.7 L192.0,82.1 L187.0,81.3 L189.5,79.8 L194.9,78.8 L195.8,77.4 L191.5,75.8 L190.2,73.7 L198.6,73.9 L201.0,74.4 L205.8,72.9 L198.9,72.4 L188.1,72.7 L182.6,71.3 L180.1,69.7 L176.5,68.5 L175.8,67.1 L180.4,66.3 L184.0,66.2 L190.0,65.5 L194.6,64.0 L198.4,64.3 L201.7,65.4 L204.1,63.2 L208.1,62.6 L213.7,62.1 L223.1,61.9 L224.7,62.4 L233.6,61.7 L240.3,62.0 L247.0,62.2Z" class="land"/>
<path d="M374.7,60.5 L393.9,63.7 L388.2,65.3 L376.4,65.5 L359.9,65.9 L361.4,66.6 L372.3,66.1 L381.6,67.5 L387.6,66.3 L390.2,67.8 L386.8,70.1 L394.6,68.6 L409.6,67.0 L418.8,67.8 L420.6,69.5 L408.0,72.4 L406.3,73.3 L396.4,74.0 L403.5,74.2 L399.9,77.2 L397.5,79.8 L397.6,84.3 L401.3,86.9 L396.4,87.1 L391.4,88.4 L397.1,90.5 L397.8,94.0 L394.5,94.3 L398.5,97.8 L391.6,98.1 L395.2,99.7 L394.2,101.2 L389.8,101.8 L385.6,101.8 L389.4,104.5 L389.5,106.3 L383.4,104.7 L381.8,105.8 L385.9,106.8 L390.0,109.2 L391.1,112.5 L385.6,113.3 L383.3,111.7 L379.5,109.4 L380.5,112.1 L376.9,114.3 L385.1,114.4 L389.3,114.6 L381.0,118.2 L372.7,121.4 L363.6,122.7 L360.2,122.8 L357.0,124.3 L352.8,128.6 L346.1,131.4 L344.0,131.6 L339.9,132.6 L335.5,133.5 L332.8,136.0 L332.8,138.9 L331.2,141.5 L326.2,144.7 L327.4,147.9 L326.0,151.2 L324.5,155.2 L320.1,155.4 L315.6,152.1 L309.4,152.1 L306.4,149.9 L304.3,146.0 L299.0,140.9 L297.4,138.3 L297.0,134.7 L292.7,130.9 L293.9,128.0 L291.8,126.5 L294.8,121.8 L299.5,120.3 L300.7,118.6 L301.4,115.5 L297.8,116.9 L296.2,117.5 L293.4,118.1 L289.6,116.7 L289.4,114.0 L290.6,111.9 L293.5,111.8 L299.8,112.9 L294.5,110.3 L291.7,108.9 L288.6,109.5 L286.0,108.5 L289.5,104.7 L287.6,103.2 L285.2,100.4 L281.5,96.1 L277.5,94.6 L277.6,92.9 L269.3,90.5 L262.7,90.2 L254.5,90.4 L247.0,90.7 L243.4,89.4 L238.0,86.8 L246.1,85.6 L252.3,85.4 L239.2,84.3 L232.2,82.7 L232.6,81.1 L244.3,79.1 L255.6,77.2 L256.8,75.7 L248.5,74.3 L251.2,72.7 L261.8,69.9 L266.3,69.4 L265.0,67.6 L272.3,66.5 L281.8,65.9 L291.3,65.9 L294.7,67.1 L302.8,64.9 L310.2,66.4 L314.5,66.7 L320.9,68.0 L313.6,65.9 L314.0,64.1 L324.4,61.7 L335.2,61.9 L339.1,60.4 L350.0,60.0 L374.7,60.5Z" class="land"/>
  <g><rect x="690" y="45" width="125" height="88" rx="8" class="slot"/><text x="752.5" y="81" class="slotlbl">INFECTION</text><text x="752.5" y="97" class="slotlbl">DECK</text></g><g><rect x="825" y="45" width="125" height="88" rx="8" class="slot"/><text x="887.5" y="81" class="slotlbl">INFECTION</text><text x="887.5" y="97" class="slotlbl">DISCARD</text></g><text x="690" y="168" class="tracklbl">INFECTION RATE</text><circle cx="705" cy="190" r="15" class="track"/><text x="705" y="190" class="tracknum">2</text><circle cx="747" cy="190" r="15" class="track"/><text x="747" y="190" class="tracknum">2</text><circle cx="789" cy="190" r="15" class="track"/><text x="789" y="190" class="tracknum">2</text><circle cx="831" cy="190" r="15" class="track"/><text x="831" y="190" class="tracknum">3</text><circle cx="873" cy="190" r="15" class="track"/><text x="873" y="190" class="tracknum">3</text><circle cx="915" cy="190" r="15" class="track"/><text x="915" y="190" class="tracknum">4</text><circle cx="957" cy="190" r="15" class="track"/><text x="957" y="190" class="tracknum">4</text><text x="52" y="278" class="tracklbl" text-anchor="middle">OUTBREAKS</text><rect x="34" y="287" width="36" height="26" rx="5" transform="rotate(45 52 300)" class="track"/><text x="52" y="300" class="tracknum">0</text><rect x="34" y="325" width="36" height="26" rx="5" transform="rotate(45 52 338)" class="track"/><text x="52" y="338" class="tracknum">1</text><rect x="34" y="363" width="36" height="26" rx="5" transform="rotate(45 52 376)" class="track"/><text x="52" y="376" class="tracknum">2</text><rect x="34" y="401" width="36" height="26" rx="5" transform="rotate(45 52 414)" class="track"/><text x="52" y="414" class="tracknum">3</text><rect x="34" y="439" width="36" height="26" rx="5" transform="rotate(45 52 452)" class="track"/><text x="52" y="452" class="tracknum">4</text><rect x="34" y="477" width="36" height="26" rx="5" transform="rotate(45 52 490)" class="track"/><text x="52" y="490" class="tracknum">5</text><rect x="34" y="515" width="36" height="26" rx="5" transform="rotate(45 52 528)" class="track"/><text x="52" y="528" class="tracknum">6</text><rect x="34" y="553" width="36" height="26" rx="5" transform="rotate(45 52 566)" class="track-danger"/><text x="52" y="566" class="tracknum">7</text><rect x="34" y="591" width="36" height="26" rx="5" transform="rotate(45 52 604)" class="track-danger"/><text x="52" y="604" class="tracknum">8</text><g><rect x="690" y="560" width="125" height="120" rx="8" class="slot"/><text x="752.5" y="612" class="slotlbl">PLAYER</text><text x="752.5" y="628" class="slotlbl">DECK</text></g><g><rect x="825" y="560" width="125" height="120" rx="8" class="slot"/><text x="887.5" y="612" class="slotlbl">PLAYER</text><text x="887.5" y="628" class="slotlbl">DISCARD</text></g><g transform="translate(410,655)"><path d="M-9,-22 L9,-22 L9,-10 Q9,14 0,20 Q-9,14 -9,-10 Z" fill="#3399ff" stroke="#fff" stroke-width="1.2" opacity="0.92"/><rect x="-11" y="-26" width="22" height="6" rx="2" fill="#dde"/></g><g transform="translate(468,655)"><path d="M-9,-22 L9,-22 L9,-10 Q9,14 0,20 Q-9,14 -9,-10 Z" fill="#ffcc00" stroke="#fff" stroke-width="1.2" opacity="0.92"/><rect x="-11" y="-26" width="22" height="6" rx="2" fill="#dde"/></g><g transform="translate(526,655)"><path d="M-9,-22 L9,-22 L9,-10 Q9,14 0,20 Q-9,14 -9,-10 Z" fill="#bbbbbb" stroke="#fff" stroke-width="1.2" opacity="0.92"/><rect x="-11" y="-26" width="22" height="6" rx="2" fill="#dde"/></g><g transform="translate(584,655)"><path d="M-9,-22 L9,-22 L9,-10 Q9,14 0,20 Q-9,14 -9,-10 Z" fill="#ff5555" stroke="#fff" stroke-width="1.2" opacity="0.92"/><rect x="-11" y="-26" width="22" height="6" rx="2" fill="#dde"/></g><text x="497" y="700" class="tracklbl" text-anchor="middle">CURES</text>
  <rect x="10" y="10" width="980" height="688" rx="14" class="frame"/>
  <text x="45" y="58" class="title">PlayOn: Outage Season</text>
</svg>